G04 #@! TF.GenerationSoftware,KiCad,Pcbnew,(5.1.5)-3*
G04 #@! TF.CreationDate,2020-02-12T22:52:44+00:00*
G04 #@! TF.ProjectId,pmod-dualrs422,706d6f64-2d64-4756-916c-72733432322e,rev?*
G04 #@! TF.SameCoordinates,Original*
G04 #@! TF.FileFunction,Copper,L1,Top*
G04 #@! TF.FilePolarity,Positive*
%FSLAX46Y46*%
G04 Gerber Fmt 4.6, Leading zero omitted, Abs format (unit mm)*
G04 Created by KiCad (PCBNEW (5.1.5)-3) date 2020-02-12 22:52:44*
%MOMM*%
%LPD*%
G04 APERTURE LIST*
%ADD10O,1.700000X1.700000*%
%ADD11R,1.700000X1.700000*%
%ADD12C,0.100000*%
%ADD13C,0.800000*%
%ADD14C,0.400000*%
%ADD15C,0.200000*%
G04 APERTURE END LIST*
D10*
X241330480Y-126989840D03*
X241330480Y-124449840D03*
X241330480Y-121909840D03*
X241330480Y-119369840D03*
X241330480Y-116829840D03*
X241330480Y-114289840D03*
X241330480Y-111749840D03*
X241330480Y-109209840D03*
X241330480Y-106669840D03*
D11*
X241330480Y-104129840D03*
G04 #@! TA.AperFunction,SMDPad,CuDef*
D12*
G36*
X231850142Y-106501174D02*
G01*
X231873803Y-106504684D01*
X231897007Y-106510496D01*
X231919529Y-106518554D01*
X231941153Y-106528782D01*
X231961670Y-106541079D01*
X231980883Y-106555329D01*
X231998607Y-106571393D01*
X232014671Y-106589117D01*
X232028921Y-106608330D01*
X232041218Y-106628847D01*
X232051446Y-106650471D01*
X232059504Y-106672993D01*
X232065316Y-106696197D01*
X232068826Y-106719858D01*
X232070000Y-106743750D01*
X232070000Y-107656250D01*
X232068826Y-107680142D01*
X232065316Y-107703803D01*
X232059504Y-107727007D01*
X232051446Y-107749529D01*
X232041218Y-107771153D01*
X232028921Y-107791670D01*
X232014671Y-107810883D01*
X231998607Y-107828607D01*
X231980883Y-107844671D01*
X231961670Y-107858921D01*
X231941153Y-107871218D01*
X231919529Y-107881446D01*
X231897007Y-107889504D01*
X231873803Y-107895316D01*
X231850142Y-107898826D01*
X231826250Y-107900000D01*
X231338750Y-107900000D01*
X231314858Y-107898826D01*
X231291197Y-107895316D01*
X231267993Y-107889504D01*
X231245471Y-107881446D01*
X231223847Y-107871218D01*
X231203330Y-107858921D01*
X231184117Y-107844671D01*
X231166393Y-107828607D01*
X231150329Y-107810883D01*
X231136079Y-107791670D01*
X231123782Y-107771153D01*
X231113554Y-107749529D01*
X231105496Y-107727007D01*
X231099684Y-107703803D01*
X231096174Y-107680142D01*
X231095000Y-107656250D01*
X231095000Y-106743750D01*
X231096174Y-106719858D01*
X231099684Y-106696197D01*
X231105496Y-106672993D01*
X231113554Y-106650471D01*
X231123782Y-106628847D01*
X231136079Y-106608330D01*
X231150329Y-106589117D01*
X231166393Y-106571393D01*
X231184117Y-106555329D01*
X231203330Y-106541079D01*
X231223847Y-106528782D01*
X231245471Y-106518554D01*
X231267993Y-106510496D01*
X231291197Y-106504684D01*
X231314858Y-106501174D01*
X231338750Y-106500000D01*
X231826250Y-106500000D01*
X231850142Y-106501174D01*
G37*
G04 #@! TD.AperFunction*
G04 #@! TA.AperFunction,SMDPad,CuDef*
G36*
X229975142Y-106501174D02*
G01*
X229998803Y-106504684D01*
X230022007Y-106510496D01*
X230044529Y-106518554D01*
X230066153Y-106528782D01*
X230086670Y-106541079D01*
X230105883Y-106555329D01*
X230123607Y-106571393D01*
X230139671Y-106589117D01*
X230153921Y-106608330D01*
X230166218Y-106628847D01*
X230176446Y-106650471D01*
X230184504Y-106672993D01*
X230190316Y-106696197D01*
X230193826Y-106719858D01*
X230195000Y-106743750D01*
X230195000Y-107656250D01*
X230193826Y-107680142D01*
X230190316Y-107703803D01*
X230184504Y-107727007D01*
X230176446Y-107749529D01*
X230166218Y-107771153D01*
X230153921Y-107791670D01*
X230139671Y-107810883D01*
X230123607Y-107828607D01*
X230105883Y-107844671D01*
X230086670Y-107858921D01*
X230066153Y-107871218D01*
X230044529Y-107881446D01*
X230022007Y-107889504D01*
X229998803Y-107895316D01*
X229975142Y-107898826D01*
X229951250Y-107900000D01*
X229463750Y-107900000D01*
X229439858Y-107898826D01*
X229416197Y-107895316D01*
X229392993Y-107889504D01*
X229370471Y-107881446D01*
X229348847Y-107871218D01*
X229328330Y-107858921D01*
X229309117Y-107844671D01*
X229291393Y-107828607D01*
X229275329Y-107810883D01*
X229261079Y-107791670D01*
X229248782Y-107771153D01*
X229238554Y-107749529D01*
X229230496Y-107727007D01*
X229224684Y-107703803D01*
X229221174Y-107680142D01*
X229220000Y-107656250D01*
X229220000Y-106743750D01*
X229221174Y-106719858D01*
X229224684Y-106696197D01*
X229230496Y-106672993D01*
X229238554Y-106650471D01*
X229248782Y-106628847D01*
X229261079Y-106608330D01*
X229275329Y-106589117D01*
X229291393Y-106571393D01*
X229309117Y-106555329D01*
X229328330Y-106541079D01*
X229348847Y-106528782D01*
X229370471Y-106518554D01*
X229392993Y-106510496D01*
X229416197Y-106504684D01*
X229439858Y-106501174D01*
X229463750Y-106500000D01*
X229951250Y-106500000D01*
X229975142Y-106501174D01*
G37*
G04 #@! TD.AperFunction*
G04 #@! TA.AperFunction,SMDPad,CuDef*
G36*
X223975142Y-121501174D02*
G01*
X223998803Y-121504684D01*
X224022007Y-121510496D01*
X224044529Y-121518554D01*
X224066153Y-121528782D01*
X224086670Y-121541079D01*
X224105883Y-121555329D01*
X224123607Y-121571393D01*
X224139671Y-121589117D01*
X224153921Y-121608330D01*
X224166218Y-121628847D01*
X224176446Y-121650471D01*
X224184504Y-121672993D01*
X224190316Y-121696197D01*
X224193826Y-121719858D01*
X224195000Y-121743750D01*
X224195000Y-122656250D01*
X224193826Y-122680142D01*
X224190316Y-122703803D01*
X224184504Y-122727007D01*
X224176446Y-122749529D01*
X224166218Y-122771153D01*
X224153921Y-122791670D01*
X224139671Y-122810883D01*
X224123607Y-122828607D01*
X224105883Y-122844671D01*
X224086670Y-122858921D01*
X224066153Y-122871218D01*
X224044529Y-122881446D01*
X224022007Y-122889504D01*
X223998803Y-122895316D01*
X223975142Y-122898826D01*
X223951250Y-122900000D01*
X223463750Y-122900000D01*
X223439858Y-122898826D01*
X223416197Y-122895316D01*
X223392993Y-122889504D01*
X223370471Y-122881446D01*
X223348847Y-122871218D01*
X223328330Y-122858921D01*
X223309117Y-122844671D01*
X223291393Y-122828607D01*
X223275329Y-122810883D01*
X223261079Y-122791670D01*
X223248782Y-122771153D01*
X223238554Y-122749529D01*
X223230496Y-122727007D01*
X223224684Y-122703803D01*
X223221174Y-122680142D01*
X223220000Y-122656250D01*
X223220000Y-121743750D01*
X223221174Y-121719858D01*
X223224684Y-121696197D01*
X223230496Y-121672993D01*
X223238554Y-121650471D01*
X223248782Y-121628847D01*
X223261079Y-121608330D01*
X223275329Y-121589117D01*
X223291393Y-121571393D01*
X223309117Y-121555329D01*
X223328330Y-121541079D01*
X223348847Y-121528782D01*
X223370471Y-121518554D01*
X223392993Y-121510496D01*
X223416197Y-121504684D01*
X223439858Y-121501174D01*
X223463750Y-121500000D01*
X223951250Y-121500000D01*
X223975142Y-121501174D01*
G37*
G04 #@! TD.AperFunction*
G04 #@! TA.AperFunction,SMDPad,CuDef*
G36*
X225850142Y-121501174D02*
G01*
X225873803Y-121504684D01*
X225897007Y-121510496D01*
X225919529Y-121518554D01*
X225941153Y-121528782D01*
X225961670Y-121541079D01*
X225980883Y-121555329D01*
X225998607Y-121571393D01*
X226014671Y-121589117D01*
X226028921Y-121608330D01*
X226041218Y-121628847D01*
X226051446Y-121650471D01*
X226059504Y-121672993D01*
X226065316Y-121696197D01*
X226068826Y-121719858D01*
X226070000Y-121743750D01*
X226070000Y-122656250D01*
X226068826Y-122680142D01*
X226065316Y-122703803D01*
X226059504Y-122727007D01*
X226051446Y-122749529D01*
X226041218Y-122771153D01*
X226028921Y-122791670D01*
X226014671Y-122810883D01*
X225998607Y-122828607D01*
X225980883Y-122844671D01*
X225961670Y-122858921D01*
X225941153Y-122871218D01*
X225919529Y-122881446D01*
X225897007Y-122889504D01*
X225873803Y-122895316D01*
X225850142Y-122898826D01*
X225826250Y-122900000D01*
X225338750Y-122900000D01*
X225314858Y-122898826D01*
X225291197Y-122895316D01*
X225267993Y-122889504D01*
X225245471Y-122881446D01*
X225223847Y-122871218D01*
X225203330Y-122858921D01*
X225184117Y-122844671D01*
X225166393Y-122828607D01*
X225150329Y-122810883D01*
X225136079Y-122791670D01*
X225123782Y-122771153D01*
X225113554Y-122749529D01*
X225105496Y-122727007D01*
X225099684Y-122703803D01*
X225096174Y-122680142D01*
X225095000Y-122656250D01*
X225095000Y-121743750D01*
X225096174Y-121719858D01*
X225099684Y-121696197D01*
X225105496Y-121672993D01*
X225113554Y-121650471D01*
X225123782Y-121628847D01*
X225136079Y-121608330D01*
X225150329Y-121589117D01*
X225166393Y-121571393D01*
X225184117Y-121555329D01*
X225203330Y-121541079D01*
X225223847Y-121528782D01*
X225245471Y-121518554D01*
X225267993Y-121510496D01*
X225291197Y-121504684D01*
X225314858Y-121501174D01*
X225338750Y-121500000D01*
X225826250Y-121500000D01*
X225850142Y-121501174D01*
G37*
G04 #@! TD.AperFunction*
G04 #@! TA.AperFunction,SMDPad,CuDef*
G36*
X223975142Y-119301174D02*
G01*
X223998803Y-119304684D01*
X224022007Y-119310496D01*
X224044529Y-119318554D01*
X224066153Y-119328782D01*
X224086670Y-119341079D01*
X224105883Y-119355329D01*
X224123607Y-119371393D01*
X224139671Y-119389117D01*
X224153921Y-119408330D01*
X224166218Y-119428847D01*
X224176446Y-119450471D01*
X224184504Y-119472993D01*
X224190316Y-119496197D01*
X224193826Y-119519858D01*
X224195000Y-119543750D01*
X224195000Y-120456250D01*
X224193826Y-120480142D01*
X224190316Y-120503803D01*
X224184504Y-120527007D01*
X224176446Y-120549529D01*
X224166218Y-120571153D01*
X224153921Y-120591670D01*
X224139671Y-120610883D01*
X224123607Y-120628607D01*
X224105883Y-120644671D01*
X224086670Y-120658921D01*
X224066153Y-120671218D01*
X224044529Y-120681446D01*
X224022007Y-120689504D01*
X223998803Y-120695316D01*
X223975142Y-120698826D01*
X223951250Y-120700000D01*
X223463750Y-120700000D01*
X223439858Y-120698826D01*
X223416197Y-120695316D01*
X223392993Y-120689504D01*
X223370471Y-120681446D01*
X223348847Y-120671218D01*
X223328330Y-120658921D01*
X223309117Y-120644671D01*
X223291393Y-120628607D01*
X223275329Y-120610883D01*
X223261079Y-120591670D01*
X223248782Y-120571153D01*
X223238554Y-120549529D01*
X223230496Y-120527007D01*
X223224684Y-120503803D01*
X223221174Y-120480142D01*
X223220000Y-120456250D01*
X223220000Y-119543750D01*
X223221174Y-119519858D01*
X223224684Y-119496197D01*
X223230496Y-119472993D01*
X223238554Y-119450471D01*
X223248782Y-119428847D01*
X223261079Y-119408330D01*
X223275329Y-119389117D01*
X223291393Y-119371393D01*
X223309117Y-119355329D01*
X223328330Y-119341079D01*
X223348847Y-119328782D01*
X223370471Y-119318554D01*
X223392993Y-119310496D01*
X223416197Y-119304684D01*
X223439858Y-119301174D01*
X223463750Y-119300000D01*
X223951250Y-119300000D01*
X223975142Y-119301174D01*
G37*
G04 #@! TD.AperFunction*
G04 #@! TA.AperFunction,SMDPad,CuDef*
G36*
X225850142Y-119301174D02*
G01*
X225873803Y-119304684D01*
X225897007Y-119310496D01*
X225919529Y-119318554D01*
X225941153Y-119328782D01*
X225961670Y-119341079D01*
X225980883Y-119355329D01*
X225998607Y-119371393D01*
X226014671Y-119389117D01*
X226028921Y-119408330D01*
X226041218Y-119428847D01*
X226051446Y-119450471D01*
X226059504Y-119472993D01*
X226065316Y-119496197D01*
X226068826Y-119519858D01*
X226070000Y-119543750D01*
X226070000Y-120456250D01*
X226068826Y-120480142D01*
X226065316Y-120503803D01*
X226059504Y-120527007D01*
X226051446Y-120549529D01*
X226041218Y-120571153D01*
X226028921Y-120591670D01*
X226014671Y-120610883D01*
X225998607Y-120628607D01*
X225980883Y-120644671D01*
X225961670Y-120658921D01*
X225941153Y-120671218D01*
X225919529Y-120681446D01*
X225897007Y-120689504D01*
X225873803Y-120695316D01*
X225850142Y-120698826D01*
X225826250Y-120700000D01*
X225338750Y-120700000D01*
X225314858Y-120698826D01*
X225291197Y-120695316D01*
X225267993Y-120689504D01*
X225245471Y-120681446D01*
X225223847Y-120671218D01*
X225203330Y-120658921D01*
X225184117Y-120644671D01*
X225166393Y-120628607D01*
X225150329Y-120610883D01*
X225136079Y-120591670D01*
X225123782Y-120571153D01*
X225113554Y-120549529D01*
X225105496Y-120527007D01*
X225099684Y-120503803D01*
X225096174Y-120480142D01*
X225095000Y-120456250D01*
X225095000Y-119543750D01*
X225096174Y-119519858D01*
X225099684Y-119496197D01*
X225105496Y-119472993D01*
X225113554Y-119450471D01*
X225123782Y-119428847D01*
X225136079Y-119408330D01*
X225150329Y-119389117D01*
X225166393Y-119371393D01*
X225184117Y-119355329D01*
X225203330Y-119341079D01*
X225223847Y-119328782D01*
X225245471Y-119318554D01*
X225267993Y-119310496D01*
X225291197Y-119304684D01*
X225314858Y-119301174D01*
X225338750Y-119300000D01*
X225826250Y-119300000D01*
X225850142Y-119301174D01*
G37*
G04 #@! TD.AperFunction*
G04 #@! TA.AperFunction,SMDPad,CuDef*
G36*
X223975142Y-111301174D02*
G01*
X223998803Y-111304684D01*
X224022007Y-111310496D01*
X224044529Y-111318554D01*
X224066153Y-111328782D01*
X224086670Y-111341079D01*
X224105883Y-111355329D01*
X224123607Y-111371393D01*
X224139671Y-111389117D01*
X224153921Y-111408330D01*
X224166218Y-111428847D01*
X224176446Y-111450471D01*
X224184504Y-111472993D01*
X224190316Y-111496197D01*
X224193826Y-111519858D01*
X224195000Y-111543750D01*
X224195000Y-112456250D01*
X224193826Y-112480142D01*
X224190316Y-112503803D01*
X224184504Y-112527007D01*
X224176446Y-112549529D01*
X224166218Y-112571153D01*
X224153921Y-112591670D01*
X224139671Y-112610883D01*
X224123607Y-112628607D01*
X224105883Y-112644671D01*
X224086670Y-112658921D01*
X224066153Y-112671218D01*
X224044529Y-112681446D01*
X224022007Y-112689504D01*
X223998803Y-112695316D01*
X223975142Y-112698826D01*
X223951250Y-112700000D01*
X223463750Y-112700000D01*
X223439858Y-112698826D01*
X223416197Y-112695316D01*
X223392993Y-112689504D01*
X223370471Y-112681446D01*
X223348847Y-112671218D01*
X223328330Y-112658921D01*
X223309117Y-112644671D01*
X223291393Y-112628607D01*
X223275329Y-112610883D01*
X223261079Y-112591670D01*
X223248782Y-112571153D01*
X223238554Y-112549529D01*
X223230496Y-112527007D01*
X223224684Y-112503803D01*
X223221174Y-112480142D01*
X223220000Y-112456250D01*
X223220000Y-111543750D01*
X223221174Y-111519858D01*
X223224684Y-111496197D01*
X223230496Y-111472993D01*
X223238554Y-111450471D01*
X223248782Y-111428847D01*
X223261079Y-111408330D01*
X223275329Y-111389117D01*
X223291393Y-111371393D01*
X223309117Y-111355329D01*
X223328330Y-111341079D01*
X223348847Y-111328782D01*
X223370471Y-111318554D01*
X223392993Y-111310496D01*
X223416197Y-111304684D01*
X223439858Y-111301174D01*
X223463750Y-111300000D01*
X223951250Y-111300000D01*
X223975142Y-111301174D01*
G37*
G04 #@! TD.AperFunction*
G04 #@! TA.AperFunction,SMDPad,CuDef*
G36*
X225850142Y-111301174D02*
G01*
X225873803Y-111304684D01*
X225897007Y-111310496D01*
X225919529Y-111318554D01*
X225941153Y-111328782D01*
X225961670Y-111341079D01*
X225980883Y-111355329D01*
X225998607Y-111371393D01*
X226014671Y-111389117D01*
X226028921Y-111408330D01*
X226041218Y-111428847D01*
X226051446Y-111450471D01*
X226059504Y-111472993D01*
X226065316Y-111496197D01*
X226068826Y-111519858D01*
X226070000Y-111543750D01*
X226070000Y-112456250D01*
X226068826Y-112480142D01*
X226065316Y-112503803D01*
X226059504Y-112527007D01*
X226051446Y-112549529D01*
X226041218Y-112571153D01*
X226028921Y-112591670D01*
X226014671Y-112610883D01*
X225998607Y-112628607D01*
X225980883Y-112644671D01*
X225961670Y-112658921D01*
X225941153Y-112671218D01*
X225919529Y-112681446D01*
X225897007Y-112689504D01*
X225873803Y-112695316D01*
X225850142Y-112698826D01*
X225826250Y-112700000D01*
X225338750Y-112700000D01*
X225314858Y-112698826D01*
X225291197Y-112695316D01*
X225267993Y-112689504D01*
X225245471Y-112681446D01*
X225223847Y-112671218D01*
X225203330Y-112658921D01*
X225184117Y-112644671D01*
X225166393Y-112628607D01*
X225150329Y-112610883D01*
X225136079Y-112591670D01*
X225123782Y-112571153D01*
X225113554Y-112549529D01*
X225105496Y-112527007D01*
X225099684Y-112503803D01*
X225096174Y-112480142D01*
X225095000Y-112456250D01*
X225095000Y-111543750D01*
X225096174Y-111519858D01*
X225099684Y-111496197D01*
X225105496Y-111472993D01*
X225113554Y-111450471D01*
X225123782Y-111428847D01*
X225136079Y-111408330D01*
X225150329Y-111389117D01*
X225166393Y-111371393D01*
X225184117Y-111355329D01*
X225203330Y-111341079D01*
X225223847Y-111328782D01*
X225245471Y-111318554D01*
X225267993Y-111310496D01*
X225291197Y-111304684D01*
X225314858Y-111301174D01*
X225338750Y-111300000D01*
X225826250Y-111300000D01*
X225850142Y-111301174D01*
G37*
G04 #@! TD.AperFunction*
G04 #@! TA.AperFunction,SMDPad,CuDef*
G36*
X223975142Y-109101174D02*
G01*
X223998803Y-109104684D01*
X224022007Y-109110496D01*
X224044529Y-109118554D01*
X224066153Y-109128782D01*
X224086670Y-109141079D01*
X224105883Y-109155329D01*
X224123607Y-109171393D01*
X224139671Y-109189117D01*
X224153921Y-109208330D01*
X224166218Y-109228847D01*
X224176446Y-109250471D01*
X224184504Y-109272993D01*
X224190316Y-109296197D01*
X224193826Y-109319858D01*
X224195000Y-109343750D01*
X224195000Y-110256250D01*
X224193826Y-110280142D01*
X224190316Y-110303803D01*
X224184504Y-110327007D01*
X224176446Y-110349529D01*
X224166218Y-110371153D01*
X224153921Y-110391670D01*
X224139671Y-110410883D01*
X224123607Y-110428607D01*
X224105883Y-110444671D01*
X224086670Y-110458921D01*
X224066153Y-110471218D01*
X224044529Y-110481446D01*
X224022007Y-110489504D01*
X223998803Y-110495316D01*
X223975142Y-110498826D01*
X223951250Y-110500000D01*
X223463750Y-110500000D01*
X223439858Y-110498826D01*
X223416197Y-110495316D01*
X223392993Y-110489504D01*
X223370471Y-110481446D01*
X223348847Y-110471218D01*
X223328330Y-110458921D01*
X223309117Y-110444671D01*
X223291393Y-110428607D01*
X223275329Y-110410883D01*
X223261079Y-110391670D01*
X223248782Y-110371153D01*
X223238554Y-110349529D01*
X223230496Y-110327007D01*
X223224684Y-110303803D01*
X223221174Y-110280142D01*
X223220000Y-110256250D01*
X223220000Y-109343750D01*
X223221174Y-109319858D01*
X223224684Y-109296197D01*
X223230496Y-109272993D01*
X223238554Y-109250471D01*
X223248782Y-109228847D01*
X223261079Y-109208330D01*
X223275329Y-109189117D01*
X223291393Y-109171393D01*
X223309117Y-109155329D01*
X223328330Y-109141079D01*
X223348847Y-109128782D01*
X223370471Y-109118554D01*
X223392993Y-109110496D01*
X223416197Y-109104684D01*
X223439858Y-109101174D01*
X223463750Y-109100000D01*
X223951250Y-109100000D01*
X223975142Y-109101174D01*
G37*
G04 #@! TD.AperFunction*
G04 #@! TA.AperFunction,SMDPad,CuDef*
G36*
X225850142Y-109101174D02*
G01*
X225873803Y-109104684D01*
X225897007Y-109110496D01*
X225919529Y-109118554D01*
X225941153Y-109128782D01*
X225961670Y-109141079D01*
X225980883Y-109155329D01*
X225998607Y-109171393D01*
X226014671Y-109189117D01*
X226028921Y-109208330D01*
X226041218Y-109228847D01*
X226051446Y-109250471D01*
X226059504Y-109272993D01*
X226065316Y-109296197D01*
X226068826Y-109319858D01*
X226070000Y-109343750D01*
X226070000Y-110256250D01*
X226068826Y-110280142D01*
X226065316Y-110303803D01*
X226059504Y-110327007D01*
X226051446Y-110349529D01*
X226041218Y-110371153D01*
X226028921Y-110391670D01*
X226014671Y-110410883D01*
X225998607Y-110428607D01*
X225980883Y-110444671D01*
X225961670Y-110458921D01*
X225941153Y-110471218D01*
X225919529Y-110481446D01*
X225897007Y-110489504D01*
X225873803Y-110495316D01*
X225850142Y-110498826D01*
X225826250Y-110500000D01*
X225338750Y-110500000D01*
X225314858Y-110498826D01*
X225291197Y-110495316D01*
X225267993Y-110489504D01*
X225245471Y-110481446D01*
X225223847Y-110471218D01*
X225203330Y-110458921D01*
X225184117Y-110444671D01*
X225166393Y-110428607D01*
X225150329Y-110410883D01*
X225136079Y-110391670D01*
X225123782Y-110371153D01*
X225113554Y-110349529D01*
X225105496Y-110327007D01*
X225099684Y-110303803D01*
X225096174Y-110280142D01*
X225095000Y-110256250D01*
X225095000Y-109343750D01*
X225096174Y-109319858D01*
X225099684Y-109296197D01*
X225105496Y-109272993D01*
X225113554Y-109250471D01*
X225123782Y-109228847D01*
X225136079Y-109208330D01*
X225150329Y-109189117D01*
X225166393Y-109171393D01*
X225184117Y-109155329D01*
X225203330Y-109141079D01*
X225223847Y-109128782D01*
X225245471Y-109118554D01*
X225267993Y-109110496D01*
X225291197Y-109104684D01*
X225314858Y-109101174D01*
X225338750Y-109100000D01*
X225826250Y-109100000D01*
X225850142Y-109101174D01*
G37*
G04 #@! TD.AperFunction*
D10*
X220985000Y-121900000D03*
X218445000Y-121900000D03*
X220985000Y-119360000D03*
X218445000Y-119360000D03*
X220985000Y-116820000D03*
X218445000Y-116820000D03*
X220985000Y-114280000D03*
X218445000Y-114280000D03*
X220985000Y-111740000D03*
X218445000Y-111740000D03*
X220985000Y-109200000D03*
D11*
X218445000Y-109200000D03*
G04 #@! TA.AperFunction,SMDPad,CuDef*
D12*
G36*
X233959703Y-119345722D02*
G01*
X233974264Y-119347882D01*
X233988543Y-119351459D01*
X234002403Y-119356418D01*
X234015710Y-119362712D01*
X234028336Y-119370280D01*
X234040159Y-119379048D01*
X234051066Y-119388934D01*
X234060952Y-119399841D01*
X234069720Y-119411664D01*
X234077288Y-119424290D01*
X234083582Y-119437597D01*
X234088541Y-119451457D01*
X234092118Y-119465736D01*
X234094278Y-119480297D01*
X234095000Y-119495000D01*
X234095000Y-119795000D01*
X234094278Y-119809703D01*
X234092118Y-119824264D01*
X234088541Y-119838543D01*
X234083582Y-119852403D01*
X234077288Y-119865710D01*
X234069720Y-119878336D01*
X234060952Y-119890159D01*
X234051066Y-119901066D01*
X234040159Y-119910952D01*
X234028336Y-119919720D01*
X234015710Y-119927288D01*
X234002403Y-119933582D01*
X233988543Y-119938541D01*
X233974264Y-119942118D01*
X233959703Y-119944278D01*
X233945000Y-119945000D01*
X232295000Y-119945000D01*
X232280297Y-119944278D01*
X232265736Y-119942118D01*
X232251457Y-119938541D01*
X232237597Y-119933582D01*
X232224290Y-119927288D01*
X232211664Y-119919720D01*
X232199841Y-119910952D01*
X232188934Y-119901066D01*
X232179048Y-119890159D01*
X232170280Y-119878336D01*
X232162712Y-119865710D01*
X232156418Y-119852403D01*
X232151459Y-119838543D01*
X232147882Y-119824264D01*
X232145722Y-119809703D01*
X232145000Y-119795000D01*
X232145000Y-119495000D01*
X232145722Y-119480297D01*
X232147882Y-119465736D01*
X232151459Y-119451457D01*
X232156418Y-119437597D01*
X232162712Y-119424290D01*
X232170280Y-119411664D01*
X232179048Y-119399841D01*
X232188934Y-119388934D01*
X232199841Y-119379048D01*
X232211664Y-119370280D01*
X232224290Y-119362712D01*
X232237597Y-119356418D01*
X232251457Y-119351459D01*
X232265736Y-119347882D01*
X232280297Y-119345722D01*
X232295000Y-119345000D01*
X233945000Y-119345000D01*
X233959703Y-119345722D01*
G37*
G04 #@! TD.AperFunction*
G04 #@! TA.AperFunction,SMDPad,CuDef*
G36*
X233959703Y-120615722D02*
G01*
X233974264Y-120617882D01*
X233988543Y-120621459D01*
X234002403Y-120626418D01*
X234015710Y-120632712D01*
X234028336Y-120640280D01*
X234040159Y-120649048D01*
X234051066Y-120658934D01*
X234060952Y-120669841D01*
X234069720Y-120681664D01*
X234077288Y-120694290D01*
X234083582Y-120707597D01*
X234088541Y-120721457D01*
X234092118Y-120735736D01*
X234094278Y-120750297D01*
X234095000Y-120765000D01*
X234095000Y-121065000D01*
X234094278Y-121079703D01*
X234092118Y-121094264D01*
X234088541Y-121108543D01*
X234083582Y-121122403D01*
X234077288Y-121135710D01*
X234069720Y-121148336D01*
X234060952Y-121160159D01*
X234051066Y-121171066D01*
X234040159Y-121180952D01*
X234028336Y-121189720D01*
X234015710Y-121197288D01*
X234002403Y-121203582D01*
X233988543Y-121208541D01*
X233974264Y-121212118D01*
X233959703Y-121214278D01*
X233945000Y-121215000D01*
X232295000Y-121215000D01*
X232280297Y-121214278D01*
X232265736Y-121212118D01*
X232251457Y-121208541D01*
X232237597Y-121203582D01*
X232224290Y-121197288D01*
X232211664Y-121189720D01*
X232199841Y-121180952D01*
X232188934Y-121171066D01*
X232179048Y-121160159D01*
X232170280Y-121148336D01*
X232162712Y-121135710D01*
X232156418Y-121122403D01*
X232151459Y-121108543D01*
X232147882Y-121094264D01*
X232145722Y-121079703D01*
X232145000Y-121065000D01*
X232145000Y-120765000D01*
X232145722Y-120750297D01*
X232147882Y-120735736D01*
X232151459Y-120721457D01*
X232156418Y-120707597D01*
X232162712Y-120694290D01*
X232170280Y-120681664D01*
X232179048Y-120669841D01*
X232188934Y-120658934D01*
X232199841Y-120649048D01*
X232211664Y-120640280D01*
X232224290Y-120632712D01*
X232237597Y-120626418D01*
X232251457Y-120621459D01*
X232265736Y-120617882D01*
X232280297Y-120615722D01*
X232295000Y-120615000D01*
X233945000Y-120615000D01*
X233959703Y-120615722D01*
G37*
G04 #@! TD.AperFunction*
G04 #@! TA.AperFunction,SMDPad,CuDef*
G36*
X233959703Y-121885722D02*
G01*
X233974264Y-121887882D01*
X233988543Y-121891459D01*
X234002403Y-121896418D01*
X234015710Y-121902712D01*
X234028336Y-121910280D01*
X234040159Y-121919048D01*
X234051066Y-121928934D01*
X234060952Y-121939841D01*
X234069720Y-121951664D01*
X234077288Y-121964290D01*
X234083582Y-121977597D01*
X234088541Y-121991457D01*
X234092118Y-122005736D01*
X234094278Y-122020297D01*
X234095000Y-122035000D01*
X234095000Y-122335000D01*
X234094278Y-122349703D01*
X234092118Y-122364264D01*
X234088541Y-122378543D01*
X234083582Y-122392403D01*
X234077288Y-122405710D01*
X234069720Y-122418336D01*
X234060952Y-122430159D01*
X234051066Y-122441066D01*
X234040159Y-122450952D01*
X234028336Y-122459720D01*
X234015710Y-122467288D01*
X234002403Y-122473582D01*
X233988543Y-122478541D01*
X233974264Y-122482118D01*
X233959703Y-122484278D01*
X233945000Y-122485000D01*
X232295000Y-122485000D01*
X232280297Y-122484278D01*
X232265736Y-122482118D01*
X232251457Y-122478541D01*
X232237597Y-122473582D01*
X232224290Y-122467288D01*
X232211664Y-122459720D01*
X232199841Y-122450952D01*
X232188934Y-122441066D01*
X232179048Y-122430159D01*
X232170280Y-122418336D01*
X232162712Y-122405710D01*
X232156418Y-122392403D01*
X232151459Y-122378543D01*
X232147882Y-122364264D01*
X232145722Y-122349703D01*
X232145000Y-122335000D01*
X232145000Y-122035000D01*
X232145722Y-122020297D01*
X232147882Y-122005736D01*
X232151459Y-121991457D01*
X232156418Y-121977597D01*
X232162712Y-121964290D01*
X232170280Y-121951664D01*
X232179048Y-121939841D01*
X232188934Y-121928934D01*
X232199841Y-121919048D01*
X232211664Y-121910280D01*
X232224290Y-121902712D01*
X232237597Y-121896418D01*
X232251457Y-121891459D01*
X232265736Y-121887882D01*
X232280297Y-121885722D01*
X232295000Y-121885000D01*
X233945000Y-121885000D01*
X233959703Y-121885722D01*
G37*
G04 #@! TD.AperFunction*
G04 #@! TA.AperFunction,SMDPad,CuDef*
G36*
X233959703Y-123155722D02*
G01*
X233974264Y-123157882D01*
X233988543Y-123161459D01*
X234002403Y-123166418D01*
X234015710Y-123172712D01*
X234028336Y-123180280D01*
X234040159Y-123189048D01*
X234051066Y-123198934D01*
X234060952Y-123209841D01*
X234069720Y-123221664D01*
X234077288Y-123234290D01*
X234083582Y-123247597D01*
X234088541Y-123261457D01*
X234092118Y-123275736D01*
X234094278Y-123290297D01*
X234095000Y-123305000D01*
X234095000Y-123605000D01*
X234094278Y-123619703D01*
X234092118Y-123634264D01*
X234088541Y-123648543D01*
X234083582Y-123662403D01*
X234077288Y-123675710D01*
X234069720Y-123688336D01*
X234060952Y-123700159D01*
X234051066Y-123711066D01*
X234040159Y-123720952D01*
X234028336Y-123729720D01*
X234015710Y-123737288D01*
X234002403Y-123743582D01*
X233988543Y-123748541D01*
X233974264Y-123752118D01*
X233959703Y-123754278D01*
X233945000Y-123755000D01*
X232295000Y-123755000D01*
X232280297Y-123754278D01*
X232265736Y-123752118D01*
X232251457Y-123748541D01*
X232237597Y-123743582D01*
X232224290Y-123737288D01*
X232211664Y-123729720D01*
X232199841Y-123720952D01*
X232188934Y-123711066D01*
X232179048Y-123700159D01*
X232170280Y-123688336D01*
X232162712Y-123675710D01*
X232156418Y-123662403D01*
X232151459Y-123648543D01*
X232147882Y-123634264D01*
X232145722Y-123619703D01*
X232145000Y-123605000D01*
X232145000Y-123305000D01*
X232145722Y-123290297D01*
X232147882Y-123275736D01*
X232151459Y-123261457D01*
X232156418Y-123247597D01*
X232162712Y-123234290D01*
X232170280Y-123221664D01*
X232179048Y-123209841D01*
X232188934Y-123198934D01*
X232199841Y-123189048D01*
X232211664Y-123180280D01*
X232224290Y-123172712D01*
X232237597Y-123166418D01*
X232251457Y-123161459D01*
X232265736Y-123157882D01*
X232280297Y-123155722D01*
X232295000Y-123155000D01*
X233945000Y-123155000D01*
X233959703Y-123155722D01*
G37*
G04 #@! TD.AperFunction*
G04 #@! TA.AperFunction,SMDPad,CuDef*
G36*
X229009703Y-123155722D02*
G01*
X229024264Y-123157882D01*
X229038543Y-123161459D01*
X229052403Y-123166418D01*
X229065710Y-123172712D01*
X229078336Y-123180280D01*
X229090159Y-123189048D01*
X229101066Y-123198934D01*
X229110952Y-123209841D01*
X229119720Y-123221664D01*
X229127288Y-123234290D01*
X229133582Y-123247597D01*
X229138541Y-123261457D01*
X229142118Y-123275736D01*
X229144278Y-123290297D01*
X229145000Y-123305000D01*
X229145000Y-123605000D01*
X229144278Y-123619703D01*
X229142118Y-123634264D01*
X229138541Y-123648543D01*
X229133582Y-123662403D01*
X229127288Y-123675710D01*
X229119720Y-123688336D01*
X229110952Y-123700159D01*
X229101066Y-123711066D01*
X229090159Y-123720952D01*
X229078336Y-123729720D01*
X229065710Y-123737288D01*
X229052403Y-123743582D01*
X229038543Y-123748541D01*
X229024264Y-123752118D01*
X229009703Y-123754278D01*
X228995000Y-123755000D01*
X227345000Y-123755000D01*
X227330297Y-123754278D01*
X227315736Y-123752118D01*
X227301457Y-123748541D01*
X227287597Y-123743582D01*
X227274290Y-123737288D01*
X227261664Y-123729720D01*
X227249841Y-123720952D01*
X227238934Y-123711066D01*
X227229048Y-123700159D01*
X227220280Y-123688336D01*
X227212712Y-123675710D01*
X227206418Y-123662403D01*
X227201459Y-123648543D01*
X227197882Y-123634264D01*
X227195722Y-123619703D01*
X227195000Y-123605000D01*
X227195000Y-123305000D01*
X227195722Y-123290297D01*
X227197882Y-123275736D01*
X227201459Y-123261457D01*
X227206418Y-123247597D01*
X227212712Y-123234290D01*
X227220280Y-123221664D01*
X227229048Y-123209841D01*
X227238934Y-123198934D01*
X227249841Y-123189048D01*
X227261664Y-123180280D01*
X227274290Y-123172712D01*
X227287597Y-123166418D01*
X227301457Y-123161459D01*
X227315736Y-123157882D01*
X227330297Y-123155722D01*
X227345000Y-123155000D01*
X228995000Y-123155000D01*
X229009703Y-123155722D01*
G37*
G04 #@! TD.AperFunction*
G04 #@! TA.AperFunction,SMDPad,CuDef*
G36*
X229009703Y-121885722D02*
G01*
X229024264Y-121887882D01*
X229038543Y-121891459D01*
X229052403Y-121896418D01*
X229065710Y-121902712D01*
X229078336Y-121910280D01*
X229090159Y-121919048D01*
X229101066Y-121928934D01*
X229110952Y-121939841D01*
X229119720Y-121951664D01*
X229127288Y-121964290D01*
X229133582Y-121977597D01*
X229138541Y-121991457D01*
X229142118Y-122005736D01*
X229144278Y-122020297D01*
X229145000Y-122035000D01*
X229145000Y-122335000D01*
X229144278Y-122349703D01*
X229142118Y-122364264D01*
X229138541Y-122378543D01*
X229133582Y-122392403D01*
X229127288Y-122405710D01*
X229119720Y-122418336D01*
X229110952Y-122430159D01*
X229101066Y-122441066D01*
X229090159Y-122450952D01*
X229078336Y-122459720D01*
X229065710Y-122467288D01*
X229052403Y-122473582D01*
X229038543Y-122478541D01*
X229024264Y-122482118D01*
X229009703Y-122484278D01*
X228995000Y-122485000D01*
X227345000Y-122485000D01*
X227330297Y-122484278D01*
X227315736Y-122482118D01*
X227301457Y-122478541D01*
X227287597Y-122473582D01*
X227274290Y-122467288D01*
X227261664Y-122459720D01*
X227249841Y-122450952D01*
X227238934Y-122441066D01*
X227229048Y-122430159D01*
X227220280Y-122418336D01*
X227212712Y-122405710D01*
X227206418Y-122392403D01*
X227201459Y-122378543D01*
X227197882Y-122364264D01*
X227195722Y-122349703D01*
X227195000Y-122335000D01*
X227195000Y-122035000D01*
X227195722Y-122020297D01*
X227197882Y-122005736D01*
X227201459Y-121991457D01*
X227206418Y-121977597D01*
X227212712Y-121964290D01*
X227220280Y-121951664D01*
X227229048Y-121939841D01*
X227238934Y-121928934D01*
X227249841Y-121919048D01*
X227261664Y-121910280D01*
X227274290Y-121902712D01*
X227287597Y-121896418D01*
X227301457Y-121891459D01*
X227315736Y-121887882D01*
X227330297Y-121885722D01*
X227345000Y-121885000D01*
X228995000Y-121885000D01*
X229009703Y-121885722D01*
G37*
G04 #@! TD.AperFunction*
G04 #@! TA.AperFunction,SMDPad,CuDef*
G36*
X229009703Y-120615722D02*
G01*
X229024264Y-120617882D01*
X229038543Y-120621459D01*
X229052403Y-120626418D01*
X229065710Y-120632712D01*
X229078336Y-120640280D01*
X229090159Y-120649048D01*
X229101066Y-120658934D01*
X229110952Y-120669841D01*
X229119720Y-120681664D01*
X229127288Y-120694290D01*
X229133582Y-120707597D01*
X229138541Y-120721457D01*
X229142118Y-120735736D01*
X229144278Y-120750297D01*
X229145000Y-120765000D01*
X229145000Y-121065000D01*
X229144278Y-121079703D01*
X229142118Y-121094264D01*
X229138541Y-121108543D01*
X229133582Y-121122403D01*
X229127288Y-121135710D01*
X229119720Y-121148336D01*
X229110952Y-121160159D01*
X229101066Y-121171066D01*
X229090159Y-121180952D01*
X229078336Y-121189720D01*
X229065710Y-121197288D01*
X229052403Y-121203582D01*
X229038543Y-121208541D01*
X229024264Y-121212118D01*
X229009703Y-121214278D01*
X228995000Y-121215000D01*
X227345000Y-121215000D01*
X227330297Y-121214278D01*
X227315736Y-121212118D01*
X227301457Y-121208541D01*
X227287597Y-121203582D01*
X227274290Y-121197288D01*
X227261664Y-121189720D01*
X227249841Y-121180952D01*
X227238934Y-121171066D01*
X227229048Y-121160159D01*
X227220280Y-121148336D01*
X227212712Y-121135710D01*
X227206418Y-121122403D01*
X227201459Y-121108543D01*
X227197882Y-121094264D01*
X227195722Y-121079703D01*
X227195000Y-121065000D01*
X227195000Y-120765000D01*
X227195722Y-120750297D01*
X227197882Y-120735736D01*
X227201459Y-120721457D01*
X227206418Y-120707597D01*
X227212712Y-120694290D01*
X227220280Y-120681664D01*
X227229048Y-120669841D01*
X227238934Y-120658934D01*
X227249841Y-120649048D01*
X227261664Y-120640280D01*
X227274290Y-120632712D01*
X227287597Y-120626418D01*
X227301457Y-120621459D01*
X227315736Y-120617882D01*
X227330297Y-120615722D01*
X227345000Y-120615000D01*
X228995000Y-120615000D01*
X229009703Y-120615722D01*
G37*
G04 #@! TD.AperFunction*
G04 #@! TA.AperFunction,SMDPad,CuDef*
G36*
X229009703Y-119345722D02*
G01*
X229024264Y-119347882D01*
X229038543Y-119351459D01*
X229052403Y-119356418D01*
X229065710Y-119362712D01*
X229078336Y-119370280D01*
X229090159Y-119379048D01*
X229101066Y-119388934D01*
X229110952Y-119399841D01*
X229119720Y-119411664D01*
X229127288Y-119424290D01*
X229133582Y-119437597D01*
X229138541Y-119451457D01*
X229142118Y-119465736D01*
X229144278Y-119480297D01*
X229145000Y-119495000D01*
X229145000Y-119795000D01*
X229144278Y-119809703D01*
X229142118Y-119824264D01*
X229138541Y-119838543D01*
X229133582Y-119852403D01*
X229127288Y-119865710D01*
X229119720Y-119878336D01*
X229110952Y-119890159D01*
X229101066Y-119901066D01*
X229090159Y-119910952D01*
X229078336Y-119919720D01*
X229065710Y-119927288D01*
X229052403Y-119933582D01*
X229038543Y-119938541D01*
X229024264Y-119942118D01*
X229009703Y-119944278D01*
X228995000Y-119945000D01*
X227345000Y-119945000D01*
X227330297Y-119944278D01*
X227315736Y-119942118D01*
X227301457Y-119938541D01*
X227287597Y-119933582D01*
X227274290Y-119927288D01*
X227261664Y-119919720D01*
X227249841Y-119910952D01*
X227238934Y-119901066D01*
X227229048Y-119890159D01*
X227220280Y-119878336D01*
X227212712Y-119865710D01*
X227206418Y-119852403D01*
X227201459Y-119838543D01*
X227197882Y-119824264D01*
X227195722Y-119809703D01*
X227195000Y-119795000D01*
X227195000Y-119495000D01*
X227195722Y-119480297D01*
X227197882Y-119465736D01*
X227201459Y-119451457D01*
X227206418Y-119437597D01*
X227212712Y-119424290D01*
X227220280Y-119411664D01*
X227229048Y-119399841D01*
X227238934Y-119388934D01*
X227249841Y-119379048D01*
X227261664Y-119370280D01*
X227274290Y-119362712D01*
X227287597Y-119356418D01*
X227301457Y-119351459D01*
X227315736Y-119347882D01*
X227330297Y-119345722D01*
X227345000Y-119345000D01*
X228995000Y-119345000D01*
X229009703Y-119345722D01*
G37*
G04 #@! TD.AperFunction*
G04 #@! TA.AperFunction,SMDPad,CuDef*
G36*
X233959703Y-109045722D02*
G01*
X233974264Y-109047882D01*
X233988543Y-109051459D01*
X234002403Y-109056418D01*
X234015710Y-109062712D01*
X234028336Y-109070280D01*
X234040159Y-109079048D01*
X234051066Y-109088934D01*
X234060952Y-109099841D01*
X234069720Y-109111664D01*
X234077288Y-109124290D01*
X234083582Y-109137597D01*
X234088541Y-109151457D01*
X234092118Y-109165736D01*
X234094278Y-109180297D01*
X234095000Y-109195000D01*
X234095000Y-109495000D01*
X234094278Y-109509703D01*
X234092118Y-109524264D01*
X234088541Y-109538543D01*
X234083582Y-109552403D01*
X234077288Y-109565710D01*
X234069720Y-109578336D01*
X234060952Y-109590159D01*
X234051066Y-109601066D01*
X234040159Y-109610952D01*
X234028336Y-109619720D01*
X234015710Y-109627288D01*
X234002403Y-109633582D01*
X233988543Y-109638541D01*
X233974264Y-109642118D01*
X233959703Y-109644278D01*
X233945000Y-109645000D01*
X232295000Y-109645000D01*
X232280297Y-109644278D01*
X232265736Y-109642118D01*
X232251457Y-109638541D01*
X232237597Y-109633582D01*
X232224290Y-109627288D01*
X232211664Y-109619720D01*
X232199841Y-109610952D01*
X232188934Y-109601066D01*
X232179048Y-109590159D01*
X232170280Y-109578336D01*
X232162712Y-109565710D01*
X232156418Y-109552403D01*
X232151459Y-109538543D01*
X232147882Y-109524264D01*
X232145722Y-109509703D01*
X232145000Y-109495000D01*
X232145000Y-109195000D01*
X232145722Y-109180297D01*
X232147882Y-109165736D01*
X232151459Y-109151457D01*
X232156418Y-109137597D01*
X232162712Y-109124290D01*
X232170280Y-109111664D01*
X232179048Y-109099841D01*
X232188934Y-109088934D01*
X232199841Y-109079048D01*
X232211664Y-109070280D01*
X232224290Y-109062712D01*
X232237597Y-109056418D01*
X232251457Y-109051459D01*
X232265736Y-109047882D01*
X232280297Y-109045722D01*
X232295000Y-109045000D01*
X233945000Y-109045000D01*
X233959703Y-109045722D01*
G37*
G04 #@! TD.AperFunction*
G04 #@! TA.AperFunction,SMDPad,CuDef*
G36*
X233959703Y-110315722D02*
G01*
X233974264Y-110317882D01*
X233988543Y-110321459D01*
X234002403Y-110326418D01*
X234015710Y-110332712D01*
X234028336Y-110340280D01*
X234040159Y-110349048D01*
X234051066Y-110358934D01*
X234060952Y-110369841D01*
X234069720Y-110381664D01*
X234077288Y-110394290D01*
X234083582Y-110407597D01*
X234088541Y-110421457D01*
X234092118Y-110435736D01*
X234094278Y-110450297D01*
X234095000Y-110465000D01*
X234095000Y-110765000D01*
X234094278Y-110779703D01*
X234092118Y-110794264D01*
X234088541Y-110808543D01*
X234083582Y-110822403D01*
X234077288Y-110835710D01*
X234069720Y-110848336D01*
X234060952Y-110860159D01*
X234051066Y-110871066D01*
X234040159Y-110880952D01*
X234028336Y-110889720D01*
X234015710Y-110897288D01*
X234002403Y-110903582D01*
X233988543Y-110908541D01*
X233974264Y-110912118D01*
X233959703Y-110914278D01*
X233945000Y-110915000D01*
X232295000Y-110915000D01*
X232280297Y-110914278D01*
X232265736Y-110912118D01*
X232251457Y-110908541D01*
X232237597Y-110903582D01*
X232224290Y-110897288D01*
X232211664Y-110889720D01*
X232199841Y-110880952D01*
X232188934Y-110871066D01*
X232179048Y-110860159D01*
X232170280Y-110848336D01*
X232162712Y-110835710D01*
X232156418Y-110822403D01*
X232151459Y-110808543D01*
X232147882Y-110794264D01*
X232145722Y-110779703D01*
X232145000Y-110765000D01*
X232145000Y-110465000D01*
X232145722Y-110450297D01*
X232147882Y-110435736D01*
X232151459Y-110421457D01*
X232156418Y-110407597D01*
X232162712Y-110394290D01*
X232170280Y-110381664D01*
X232179048Y-110369841D01*
X232188934Y-110358934D01*
X232199841Y-110349048D01*
X232211664Y-110340280D01*
X232224290Y-110332712D01*
X232237597Y-110326418D01*
X232251457Y-110321459D01*
X232265736Y-110317882D01*
X232280297Y-110315722D01*
X232295000Y-110315000D01*
X233945000Y-110315000D01*
X233959703Y-110315722D01*
G37*
G04 #@! TD.AperFunction*
G04 #@! TA.AperFunction,SMDPad,CuDef*
G36*
X233959703Y-111585722D02*
G01*
X233974264Y-111587882D01*
X233988543Y-111591459D01*
X234002403Y-111596418D01*
X234015710Y-111602712D01*
X234028336Y-111610280D01*
X234040159Y-111619048D01*
X234051066Y-111628934D01*
X234060952Y-111639841D01*
X234069720Y-111651664D01*
X234077288Y-111664290D01*
X234083582Y-111677597D01*
X234088541Y-111691457D01*
X234092118Y-111705736D01*
X234094278Y-111720297D01*
X234095000Y-111735000D01*
X234095000Y-112035000D01*
X234094278Y-112049703D01*
X234092118Y-112064264D01*
X234088541Y-112078543D01*
X234083582Y-112092403D01*
X234077288Y-112105710D01*
X234069720Y-112118336D01*
X234060952Y-112130159D01*
X234051066Y-112141066D01*
X234040159Y-112150952D01*
X234028336Y-112159720D01*
X234015710Y-112167288D01*
X234002403Y-112173582D01*
X233988543Y-112178541D01*
X233974264Y-112182118D01*
X233959703Y-112184278D01*
X233945000Y-112185000D01*
X232295000Y-112185000D01*
X232280297Y-112184278D01*
X232265736Y-112182118D01*
X232251457Y-112178541D01*
X232237597Y-112173582D01*
X232224290Y-112167288D01*
X232211664Y-112159720D01*
X232199841Y-112150952D01*
X232188934Y-112141066D01*
X232179048Y-112130159D01*
X232170280Y-112118336D01*
X232162712Y-112105710D01*
X232156418Y-112092403D01*
X232151459Y-112078543D01*
X232147882Y-112064264D01*
X232145722Y-112049703D01*
X232145000Y-112035000D01*
X232145000Y-111735000D01*
X232145722Y-111720297D01*
X232147882Y-111705736D01*
X232151459Y-111691457D01*
X232156418Y-111677597D01*
X232162712Y-111664290D01*
X232170280Y-111651664D01*
X232179048Y-111639841D01*
X232188934Y-111628934D01*
X232199841Y-111619048D01*
X232211664Y-111610280D01*
X232224290Y-111602712D01*
X232237597Y-111596418D01*
X232251457Y-111591459D01*
X232265736Y-111587882D01*
X232280297Y-111585722D01*
X232295000Y-111585000D01*
X233945000Y-111585000D01*
X233959703Y-111585722D01*
G37*
G04 #@! TD.AperFunction*
G04 #@! TA.AperFunction,SMDPad,CuDef*
G36*
X233959703Y-112855722D02*
G01*
X233974264Y-112857882D01*
X233988543Y-112861459D01*
X234002403Y-112866418D01*
X234015710Y-112872712D01*
X234028336Y-112880280D01*
X234040159Y-112889048D01*
X234051066Y-112898934D01*
X234060952Y-112909841D01*
X234069720Y-112921664D01*
X234077288Y-112934290D01*
X234083582Y-112947597D01*
X234088541Y-112961457D01*
X234092118Y-112975736D01*
X234094278Y-112990297D01*
X234095000Y-113005000D01*
X234095000Y-113305000D01*
X234094278Y-113319703D01*
X234092118Y-113334264D01*
X234088541Y-113348543D01*
X234083582Y-113362403D01*
X234077288Y-113375710D01*
X234069720Y-113388336D01*
X234060952Y-113400159D01*
X234051066Y-113411066D01*
X234040159Y-113420952D01*
X234028336Y-113429720D01*
X234015710Y-113437288D01*
X234002403Y-113443582D01*
X233988543Y-113448541D01*
X233974264Y-113452118D01*
X233959703Y-113454278D01*
X233945000Y-113455000D01*
X232295000Y-113455000D01*
X232280297Y-113454278D01*
X232265736Y-113452118D01*
X232251457Y-113448541D01*
X232237597Y-113443582D01*
X232224290Y-113437288D01*
X232211664Y-113429720D01*
X232199841Y-113420952D01*
X232188934Y-113411066D01*
X232179048Y-113400159D01*
X232170280Y-113388336D01*
X232162712Y-113375710D01*
X232156418Y-113362403D01*
X232151459Y-113348543D01*
X232147882Y-113334264D01*
X232145722Y-113319703D01*
X232145000Y-113305000D01*
X232145000Y-113005000D01*
X232145722Y-112990297D01*
X232147882Y-112975736D01*
X232151459Y-112961457D01*
X232156418Y-112947597D01*
X232162712Y-112934290D01*
X232170280Y-112921664D01*
X232179048Y-112909841D01*
X232188934Y-112898934D01*
X232199841Y-112889048D01*
X232211664Y-112880280D01*
X232224290Y-112872712D01*
X232237597Y-112866418D01*
X232251457Y-112861459D01*
X232265736Y-112857882D01*
X232280297Y-112855722D01*
X232295000Y-112855000D01*
X233945000Y-112855000D01*
X233959703Y-112855722D01*
G37*
G04 #@! TD.AperFunction*
G04 #@! TA.AperFunction,SMDPad,CuDef*
G36*
X229009703Y-112855722D02*
G01*
X229024264Y-112857882D01*
X229038543Y-112861459D01*
X229052403Y-112866418D01*
X229065710Y-112872712D01*
X229078336Y-112880280D01*
X229090159Y-112889048D01*
X229101066Y-112898934D01*
X229110952Y-112909841D01*
X229119720Y-112921664D01*
X229127288Y-112934290D01*
X229133582Y-112947597D01*
X229138541Y-112961457D01*
X229142118Y-112975736D01*
X229144278Y-112990297D01*
X229145000Y-113005000D01*
X229145000Y-113305000D01*
X229144278Y-113319703D01*
X229142118Y-113334264D01*
X229138541Y-113348543D01*
X229133582Y-113362403D01*
X229127288Y-113375710D01*
X229119720Y-113388336D01*
X229110952Y-113400159D01*
X229101066Y-113411066D01*
X229090159Y-113420952D01*
X229078336Y-113429720D01*
X229065710Y-113437288D01*
X229052403Y-113443582D01*
X229038543Y-113448541D01*
X229024264Y-113452118D01*
X229009703Y-113454278D01*
X228995000Y-113455000D01*
X227345000Y-113455000D01*
X227330297Y-113454278D01*
X227315736Y-113452118D01*
X227301457Y-113448541D01*
X227287597Y-113443582D01*
X227274290Y-113437288D01*
X227261664Y-113429720D01*
X227249841Y-113420952D01*
X227238934Y-113411066D01*
X227229048Y-113400159D01*
X227220280Y-113388336D01*
X227212712Y-113375710D01*
X227206418Y-113362403D01*
X227201459Y-113348543D01*
X227197882Y-113334264D01*
X227195722Y-113319703D01*
X227195000Y-113305000D01*
X227195000Y-113005000D01*
X227195722Y-112990297D01*
X227197882Y-112975736D01*
X227201459Y-112961457D01*
X227206418Y-112947597D01*
X227212712Y-112934290D01*
X227220280Y-112921664D01*
X227229048Y-112909841D01*
X227238934Y-112898934D01*
X227249841Y-112889048D01*
X227261664Y-112880280D01*
X227274290Y-112872712D01*
X227287597Y-112866418D01*
X227301457Y-112861459D01*
X227315736Y-112857882D01*
X227330297Y-112855722D01*
X227345000Y-112855000D01*
X228995000Y-112855000D01*
X229009703Y-112855722D01*
G37*
G04 #@! TD.AperFunction*
G04 #@! TA.AperFunction,SMDPad,CuDef*
G36*
X229009703Y-111585722D02*
G01*
X229024264Y-111587882D01*
X229038543Y-111591459D01*
X229052403Y-111596418D01*
X229065710Y-111602712D01*
X229078336Y-111610280D01*
X229090159Y-111619048D01*
X229101066Y-111628934D01*
X229110952Y-111639841D01*
X229119720Y-111651664D01*
X229127288Y-111664290D01*
X229133582Y-111677597D01*
X229138541Y-111691457D01*
X229142118Y-111705736D01*
X229144278Y-111720297D01*
X229145000Y-111735000D01*
X229145000Y-112035000D01*
X229144278Y-112049703D01*
X229142118Y-112064264D01*
X229138541Y-112078543D01*
X229133582Y-112092403D01*
X229127288Y-112105710D01*
X229119720Y-112118336D01*
X229110952Y-112130159D01*
X229101066Y-112141066D01*
X229090159Y-112150952D01*
X229078336Y-112159720D01*
X229065710Y-112167288D01*
X229052403Y-112173582D01*
X229038543Y-112178541D01*
X229024264Y-112182118D01*
X229009703Y-112184278D01*
X228995000Y-112185000D01*
X227345000Y-112185000D01*
X227330297Y-112184278D01*
X227315736Y-112182118D01*
X227301457Y-112178541D01*
X227287597Y-112173582D01*
X227274290Y-112167288D01*
X227261664Y-112159720D01*
X227249841Y-112150952D01*
X227238934Y-112141066D01*
X227229048Y-112130159D01*
X227220280Y-112118336D01*
X227212712Y-112105710D01*
X227206418Y-112092403D01*
X227201459Y-112078543D01*
X227197882Y-112064264D01*
X227195722Y-112049703D01*
X227195000Y-112035000D01*
X227195000Y-111735000D01*
X227195722Y-111720297D01*
X227197882Y-111705736D01*
X227201459Y-111691457D01*
X227206418Y-111677597D01*
X227212712Y-111664290D01*
X227220280Y-111651664D01*
X227229048Y-111639841D01*
X227238934Y-111628934D01*
X227249841Y-111619048D01*
X227261664Y-111610280D01*
X227274290Y-111602712D01*
X227287597Y-111596418D01*
X227301457Y-111591459D01*
X227315736Y-111587882D01*
X227330297Y-111585722D01*
X227345000Y-111585000D01*
X228995000Y-111585000D01*
X229009703Y-111585722D01*
G37*
G04 #@! TD.AperFunction*
G04 #@! TA.AperFunction,SMDPad,CuDef*
G36*
X229009703Y-110315722D02*
G01*
X229024264Y-110317882D01*
X229038543Y-110321459D01*
X229052403Y-110326418D01*
X229065710Y-110332712D01*
X229078336Y-110340280D01*
X229090159Y-110349048D01*
X229101066Y-110358934D01*
X229110952Y-110369841D01*
X229119720Y-110381664D01*
X229127288Y-110394290D01*
X229133582Y-110407597D01*
X229138541Y-110421457D01*
X229142118Y-110435736D01*
X229144278Y-110450297D01*
X229145000Y-110465000D01*
X229145000Y-110765000D01*
X229144278Y-110779703D01*
X229142118Y-110794264D01*
X229138541Y-110808543D01*
X229133582Y-110822403D01*
X229127288Y-110835710D01*
X229119720Y-110848336D01*
X229110952Y-110860159D01*
X229101066Y-110871066D01*
X229090159Y-110880952D01*
X229078336Y-110889720D01*
X229065710Y-110897288D01*
X229052403Y-110903582D01*
X229038543Y-110908541D01*
X229024264Y-110912118D01*
X229009703Y-110914278D01*
X228995000Y-110915000D01*
X227345000Y-110915000D01*
X227330297Y-110914278D01*
X227315736Y-110912118D01*
X227301457Y-110908541D01*
X227287597Y-110903582D01*
X227274290Y-110897288D01*
X227261664Y-110889720D01*
X227249841Y-110880952D01*
X227238934Y-110871066D01*
X227229048Y-110860159D01*
X227220280Y-110848336D01*
X227212712Y-110835710D01*
X227206418Y-110822403D01*
X227201459Y-110808543D01*
X227197882Y-110794264D01*
X227195722Y-110779703D01*
X227195000Y-110765000D01*
X227195000Y-110465000D01*
X227195722Y-110450297D01*
X227197882Y-110435736D01*
X227201459Y-110421457D01*
X227206418Y-110407597D01*
X227212712Y-110394290D01*
X227220280Y-110381664D01*
X227229048Y-110369841D01*
X227238934Y-110358934D01*
X227249841Y-110349048D01*
X227261664Y-110340280D01*
X227274290Y-110332712D01*
X227287597Y-110326418D01*
X227301457Y-110321459D01*
X227315736Y-110317882D01*
X227330297Y-110315722D01*
X227345000Y-110315000D01*
X228995000Y-110315000D01*
X229009703Y-110315722D01*
G37*
G04 #@! TD.AperFunction*
G04 #@! TA.AperFunction,SMDPad,CuDef*
G36*
X229009703Y-109045722D02*
G01*
X229024264Y-109047882D01*
X229038543Y-109051459D01*
X229052403Y-109056418D01*
X229065710Y-109062712D01*
X229078336Y-109070280D01*
X229090159Y-109079048D01*
X229101066Y-109088934D01*
X229110952Y-109099841D01*
X229119720Y-109111664D01*
X229127288Y-109124290D01*
X229133582Y-109137597D01*
X229138541Y-109151457D01*
X229142118Y-109165736D01*
X229144278Y-109180297D01*
X229145000Y-109195000D01*
X229145000Y-109495000D01*
X229144278Y-109509703D01*
X229142118Y-109524264D01*
X229138541Y-109538543D01*
X229133582Y-109552403D01*
X229127288Y-109565710D01*
X229119720Y-109578336D01*
X229110952Y-109590159D01*
X229101066Y-109601066D01*
X229090159Y-109610952D01*
X229078336Y-109619720D01*
X229065710Y-109627288D01*
X229052403Y-109633582D01*
X229038543Y-109638541D01*
X229024264Y-109642118D01*
X229009703Y-109644278D01*
X228995000Y-109645000D01*
X227345000Y-109645000D01*
X227330297Y-109644278D01*
X227315736Y-109642118D01*
X227301457Y-109638541D01*
X227287597Y-109633582D01*
X227274290Y-109627288D01*
X227261664Y-109619720D01*
X227249841Y-109610952D01*
X227238934Y-109601066D01*
X227229048Y-109590159D01*
X227220280Y-109578336D01*
X227212712Y-109565710D01*
X227206418Y-109552403D01*
X227201459Y-109538543D01*
X227197882Y-109524264D01*
X227195722Y-109509703D01*
X227195000Y-109495000D01*
X227195000Y-109195000D01*
X227195722Y-109180297D01*
X227197882Y-109165736D01*
X227201459Y-109151457D01*
X227206418Y-109137597D01*
X227212712Y-109124290D01*
X227220280Y-109111664D01*
X227229048Y-109099841D01*
X227238934Y-109088934D01*
X227249841Y-109079048D01*
X227261664Y-109070280D01*
X227274290Y-109062712D01*
X227287597Y-109056418D01*
X227301457Y-109051459D01*
X227315736Y-109047882D01*
X227330297Y-109045722D01*
X227345000Y-109045000D01*
X228995000Y-109045000D01*
X229009703Y-109045722D01*
G37*
G04 #@! TD.AperFunction*
G04 #@! TA.AperFunction,SMDPad,CuDef*
G36*
X236700142Y-119498674D02*
G01*
X236723803Y-119502184D01*
X236747007Y-119507996D01*
X236769529Y-119516054D01*
X236791153Y-119526282D01*
X236811670Y-119538579D01*
X236830883Y-119552829D01*
X236848607Y-119568893D01*
X236864671Y-119586617D01*
X236878921Y-119605830D01*
X236891218Y-119626347D01*
X236901446Y-119647971D01*
X236909504Y-119670493D01*
X236915316Y-119693697D01*
X236918826Y-119717358D01*
X236920000Y-119741250D01*
X236920000Y-120228750D01*
X236918826Y-120252642D01*
X236915316Y-120276303D01*
X236909504Y-120299507D01*
X236901446Y-120322029D01*
X236891218Y-120343653D01*
X236878921Y-120364170D01*
X236864671Y-120383383D01*
X236848607Y-120401107D01*
X236830883Y-120417171D01*
X236811670Y-120431421D01*
X236791153Y-120443718D01*
X236769529Y-120453946D01*
X236747007Y-120462004D01*
X236723803Y-120467816D01*
X236700142Y-120471326D01*
X236676250Y-120472500D01*
X235763750Y-120472500D01*
X235739858Y-120471326D01*
X235716197Y-120467816D01*
X235692993Y-120462004D01*
X235670471Y-120453946D01*
X235648847Y-120443718D01*
X235628330Y-120431421D01*
X235609117Y-120417171D01*
X235591393Y-120401107D01*
X235575329Y-120383383D01*
X235561079Y-120364170D01*
X235548782Y-120343653D01*
X235538554Y-120322029D01*
X235530496Y-120299507D01*
X235524684Y-120276303D01*
X235521174Y-120252642D01*
X235520000Y-120228750D01*
X235520000Y-119741250D01*
X235521174Y-119717358D01*
X235524684Y-119693697D01*
X235530496Y-119670493D01*
X235538554Y-119647971D01*
X235548782Y-119626347D01*
X235561079Y-119605830D01*
X235575329Y-119586617D01*
X235591393Y-119568893D01*
X235609117Y-119552829D01*
X235628330Y-119538579D01*
X235648847Y-119526282D01*
X235670471Y-119516054D01*
X235692993Y-119507996D01*
X235716197Y-119502184D01*
X235739858Y-119498674D01*
X235763750Y-119497500D01*
X236676250Y-119497500D01*
X236700142Y-119498674D01*
G37*
G04 #@! TD.AperFunction*
G04 #@! TA.AperFunction,SMDPad,CuDef*
G36*
X236700142Y-117623674D02*
G01*
X236723803Y-117627184D01*
X236747007Y-117632996D01*
X236769529Y-117641054D01*
X236791153Y-117651282D01*
X236811670Y-117663579D01*
X236830883Y-117677829D01*
X236848607Y-117693893D01*
X236864671Y-117711617D01*
X236878921Y-117730830D01*
X236891218Y-117751347D01*
X236901446Y-117772971D01*
X236909504Y-117795493D01*
X236915316Y-117818697D01*
X236918826Y-117842358D01*
X236920000Y-117866250D01*
X236920000Y-118353750D01*
X236918826Y-118377642D01*
X236915316Y-118401303D01*
X236909504Y-118424507D01*
X236901446Y-118447029D01*
X236891218Y-118468653D01*
X236878921Y-118489170D01*
X236864671Y-118508383D01*
X236848607Y-118526107D01*
X236830883Y-118542171D01*
X236811670Y-118556421D01*
X236791153Y-118568718D01*
X236769529Y-118578946D01*
X236747007Y-118587004D01*
X236723803Y-118592816D01*
X236700142Y-118596326D01*
X236676250Y-118597500D01*
X235763750Y-118597500D01*
X235739858Y-118596326D01*
X235716197Y-118592816D01*
X235692993Y-118587004D01*
X235670471Y-118578946D01*
X235648847Y-118568718D01*
X235628330Y-118556421D01*
X235609117Y-118542171D01*
X235591393Y-118526107D01*
X235575329Y-118508383D01*
X235561079Y-118489170D01*
X235548782Y-118468653D01*
X235538554Y-118447029D01*
X235530496Y-118424507D01*
X235524684Y-118401303D01*
X235521174Y-118377642D01*
X235520000Y-118353750D01*
X235520000Y-117866250D01*
X235521174Y-117842358D01*
X235524684Y-117818697D01*
X235530496Y-117795493D01*
X235538554Y-117772971D01*
X235548782Y-117751347D01*
X235561079Y-117730830D01*
X235575329Y-117711617D01*
X235591393Y-117693893D01*
X235609117Y-117677829D01*
X235628330Y-117663579D01*
X235648847Y-117651282D01*
X235670471Y-117641054D01*
X235692993Y-117632996D01*
X235716197Y-117627184D01*
X235739858Y-117623674D01*
X235763750Y-117622500D01*
X236676250Y-117622500D01*
X236700142Y-117623674D01*
G37*
G04 #@! TD.AperFunction*
G04 #@! TA.AperFunction,SMDPad,CuDef*
G36*
X236700142Y-109036174D02*
G01*
X236723803Y-109039684D01*
X236747007Y-109045496D01*
X236769529Y-109053554D01*
X236791153Y-109063782D01*
X236811670Y-109076079D01*
X236830883Y-109090329D01*
X236848607Y-109106393D01*
X236864671Y-109124117D01*
X236878921Y-109143330D01*
X236891218Y-109163847D01*
X236901446Y-109185471D01*
X236909504Y-109207993D01*
X236915316Y-109231197D01*
X236918826Y-109254858D01*
X236920000Y-109278750D01*
X236920000Y-109766250D01*
X236918826Y-109790142D01*
X236915316Y-109813803D01*
X236909504Y-109837007D01*
X236901446Y-109859529D01*
X236891218Y-109881153D01*
X236878921Y-109901670D01*
X236864671Y-109920883D01*
X236848607Y-109938607D01*
X236830883Y-109954671D01*
X236811670Y-109968921D01*
X236791153Y-109981218D01*
X236769529Y-109991446D01*
X236747007Y-109999504D01*
X236723803Y-110005316D01*
X236700142Y-110008826D01*
X236676250Y-110010000D01*
X235763750Y-110010000D01*
X235739858Y-110008826D01*
X235716197Y-110005316D01*
X235692993Y-109999504D01*
X235670471Y-109991446D01*
X235648847Y-109981218D01*
X235628330Y-109968921D01*
X235609117Y-109954671D01*
X235591393Y-109938607D01*
X235575329Y-109920883D01*
X235561079Y-109901670D01*
X235548782Y-109881153D01*
X235538554Y-109859529D01*
X235530496Y-109837007D01*
X235524684Y-109813803D01*
X235521174Y-109790142D01*
X235520000Y-109766250D01*
X235520000Y-109278750D01*
X235521174Y-109254858D01*
X235524684Y-109231197D01*
X235530496Y-109207993D01*
X235538554Y-109185471D01*
X235548782Y-109163847D01*
X235561079Y-109143330D01*
X235575329Y-109124117D01*
X235591393Y-109106393D01*
X235609117Y-109090329D01*
X235628330Y-109076079D01*
X235648847Y-109063782D01*
X235670471Y-109053554D01*
X235692993Y-109045496D01*
X235716197Y-109039684D01*
X235739858Y-109036174D01*
X235763750Y-109035000D01*
X236676250Y-109035000D01*
X236700142Y-109036174D01*
G37*
G04 #@! TD.AperFunction*
G04 #@! TA.AperFunction,SMDPad,CuDef*
G36*
X236700142Y-107161174D02*
G01*
X236723803Y-107164684D01*
X236747007Y-107170496D01*
X236769529Y-107178554D01*
X236791153Y-107188782D01*
X236811670Y-107201079D01*
X236830883Y-107215329D01*
X236848607Y-107231393D01*
X236864671Y-107249117D01*
X236878921Y-107268330D01*
X236891218Y-107288847D01*
X236901446Y-107310471D01*
X236909504Y-107332993D01*
X236915316Y-107356197D01*
X236918826Y-107379858D01*
X236920000Y-107403750D01*
X236920000Y-107891250D01*
X236918826Y-107915142D01*
X236915316Y-107938803D01*
X236909504Y-107962007D01*
X236901446Y-107984529D01*
X236891218Y-108006153D01*
X236878921Y-108026670D01*
X236864671Y-108045883D01*
X236848607Y-108063607D01*
X236830883Y-108079671D01*
X236811670Y-108093921D01*
X236791153Y-108106218D01*
X236769529Y-108116446D01*
X236747007Y-108124504D01*
X236723803Y-108130316D01*
X236700142Y-108133826D01*
X236676250Y-108135000D01*
X235763750Y-108135000D01*
X235739858Y-108133826D01*
X235716197Y-108130316D01*
X235692993Y-108124504D01*
X235670471Y-108116446D01*
X235648847Y-108106218D01*
X235628330Y-108093921D01*
X235609117Y-108079671D01*
X235591393Y-108063607D01*
X235575329Y-108045883D01*
X235561079Y-108026670D01*
X235548782Y-108006153D01*
X235538554Y-107984529D01*
X235530496Y-107962007D01*
X235524684Y-107938803D01*
X235521174Y-107915142D01*
X235520000Y-107891250D01*
X235520000Y-107403750D01*
X235521174Y-107379858D01*
X235524684Y-107356197D01*
X235530496Y-107332993D01*
X235538554Y-107310471D01*
X235548782Y-107288847D01*
X235561079Y-107268330D01*
X235575329Y-107249117D01*
X235591393Y-107231393D01*
X235609117Y-107215329D01*
X235628330Y-107201079D01*
X235648847Y-107188782D01*
X235670471Y-107178554D01*
X235692993Y-107170496D01*
X235716197Y-107164684D01*
X235739858Y-107161174D01*
X235763750Y-107160000D01*
X236676250Y-107160000D01*
X236700142Y-107161174D01*
G37*
G04 #@! TD.AperFunction*
G04 #@! TA.AperFunction,SMDPad,CuDef*
G36*
X238960142Y-120058674D02*
G01*
X238983803Y-120062184D01*
X239007007Y-120067996D01*
X239029529Y-120076054D01*
X239051153Y-120086282D01*
X239071670Y-120098579D01*
X239090883Y-120112829D01*
X239108607Y-120128893D01*
X239124671Y-120146617D01*
X239138921Y-120165830D01*
X239151218Y-120186347D01*
X239161446Y-120207971D01*
X239169504Y-120230493D01*
X239175316Y-120253697D01*
X239178826Y-120277358D01*
X239180000Y-120301250D01*
X239180000Y-120788750D01*
X239178826Y-120812642D01*
X239175316Y-120836303D01*
X239169504Y-120859507D01*
X239161446Y-120882029D01*
X239151218Y-120903653D01*
X239138921Y-120924170D01*
X239124671Y-120943383D01*
X239108607Y-120961107D01*
X239090883Y-120977171D01*
X239071670Y-120991421D01*
X239051153Y-121003718D01*
X239029529Y-121013946D01*
X239007007Y-121022004D01*
X238983803Y-121027816D01*
X238960142Y-121031326D01*
X238936250Y-121032500D01*
X238023750Y-121032500D01*
X237999858Y-121031326D01*
X237976197Y-121027816D01*
X237952993Y-121022004D01*
X237930471Y-121013946D01*
X237908847Y-121003718D01*
X237888330Y-120991421D01*
X237869117Y-120977171D01*
X237851393Y-120961107D01*
X237835329Y-120943383D01*
X237821079Y-120924170D01*
X237808782Y-120903653D01*
X237798554Y-120882029D01*
X237790496Y-120859507D01*
X237784684Y-120836303D01*
X237781174Y-120812642D01*
X237780000Y-120788750D01*
X237780000Y-120301250D01*
X237781174Y-120277358D01*
X237784684Y-120253697D01*
X237790496Y-120230493D01*
X237798554Y-120207971D01*
X237808782Y-120186347D01*
X237821079Y-120165830D01*
X237835329Y-120146617D01*
X237851393Y-120128893D01*
X237869117Y-120112829D01*
X237888330Y-120098579D01*
X237908847Y-120086282D01*
X237930471Y-120076054D01*
X237952993Y-120067996D01*
X237976197Y-120062184D01*
X237999858Y-120058674D01*
X238023750Y-120057500D01*
X238936250Y-120057500D01*
X238960142Y-120058674D01*
G37*
G04 #@! TD.AperFunction*
G04 #@! TA.AperFunction,SMDPad,CuDef*
G36*
X238960142Y-118183674D02*
G01*
X238983803Y-118187184D01*
X239007007Y-118192996D01*
X239029529Y-118201054D01*
X239051153Y-118211282D01*
X239071670Y-118223579D01*
X239090883Y-118237829D01*
X239108607Y-118253893D01*
X239124671Y-118271617D01*
X239138921Y-118290830D01*
X239151218Y-118311347D01*
X239161446Y-118332971D01*
X239169504Y-118355493D01*
X239175316Y-118378697D01*
X239178826Y-118402358D01*
X239180000Y-118426250D01*
X239180000Y-118913750D01*
X239178826Y-118937642D01*
X239175316Y-118961303D01*
X239169504Y-118984507D01*
X239161446Y-119007029D01*
X239151218Y-119028653D01*
X239138921Y-119049170D01*
X239124671Y-119068383D01*
X239108607Y-119086107D01*
X239090883Y-119102171D01*
X239071670Y-119116421D01*
X239051153Y-119128718D01*
X239029529Y-119138946D01*
X239007007Y-119147004D01*
X238983803Y-119152816D01*
X238960142Y-119156326D01*
X238936250Y-119157500D01*
X238023750Y-119157500D01*
X237999858Y-119156326D01*
X237976197Y-119152816D01*
X237952993Y-119147004D01*
X237930471Y-119138946D01*
X237908847Y-119128718D01*
X237888330Y-119116421D01*
X237869117Y-119102171D01*
X237851393Y-119086107D01*
X237835329Y-119068383D01*
X237821079Y-119049170D01*
X237808782Y-119028653D01*
X237798554Y-119007029D01*
X237790496Y-118984507D01*
X237784684Y-118961303D01*
X237781174Y-118937642D01*
X237780000Y-118913750D01*
X237780000Y-118426250D01*
X237781174Y-118402358D01*
X237784684Y-118378697D01*
X237790496Y-118355493D01*
X237798554Y-118332971D01*
X237808782Y-118311347D01*
X237821079Y-118290830D01*
X237835329Y-118271617D01*
X237851393Y-118253893D01*
X237869117Y-118237829D01*
X237888330Y-118223579D01*
X237908847Y-118211282D01*
X237930471Y-118201054D01*
X237952993Y-118192996D01*
X237976197Y-118187184D01*
X237999858Y-118183674D01*
X238023750Y-118182500D01*
X238936250Y-118182500D01*
X238960142Y-118183674D01*
G37*
G04 #@! TD.AperFunction*
G04 #@! TA.AperFunction,SMDPad,CuDef*
G36*
X238860142Y-109458674D02*
G01*
X238883803Y-109462184D01*
X238907007Y-109467996D01*
X238929529Y-109476054D01*
X238951153Y-109486282D01*
X238971670Y-109498579D01*
X238990883Y-109512829D01*
X239008607Y-109528893D01*
X239024671Y-109546617D01*
X239038921Y-109565830D01*
X239051218Y-109586347D01*
X239061446Y-109607971D01*
X239069504Y-109630493D01*
X239075316Y-109653697D01*
X239078826Y-109677358D01*
X239080000Y-109701250D01*
X239080000Y-110188750D01*
X239078826Y-110212642D01*
X239075316Y-110236303D01*
X239069504Y-110259507D01*
X239061446Y-110282029D01*
X239051218Y-110303653D01*
X239038921Y-110324170D01*
X239024671Y-110343383D01*
X239008607Y-110361107D01*
X238990883Y-110377171D01*
X238971670Y-110391421D01*
X238951153Y-110403718D01*
X238929529Y-110413946D01*
X238907007Y-110422004D01*
X238883803Y-110427816D01*
X238860142Y-110431326D01*
X238836250Y-110432500D01*
X237923750Y-110432500D01*
X237899858Y-110431326D01*
X237876197Y-110427816D01*
X237852993Y-110422004D01*
X237830471Y-110413946D01*
X237808847Y-110403718D01*
X237788330Y-110391421D01*
X237769117Y-110377171D01*
X237751393Y-110361107D01*
X237735329Y-110343383D01*
X237721079Y-110324170D01*
X237708782Y-110303653D01*
X237698554Y-110282029D01*
X237690496Y-110259507D01*
X237684684Y-110236303D01*
X237681174Y-110212642D01*
X237680000Y-110188750D01*
X237680000Y-109701250D01*
X237681174Y-109677358D01*
X237684684Y-109653697D01*
X237690496Y-109630493D01*
X237698554Y-109607971D01*
X237708782Y-109586347D01*
X237721079Y-109565830D01*
X237735329Y-109546617D01*
X237751393Y-109528893D01*
X237769117Y-109512829D01*
X237788330Y-109498579D01*
X237808847Y-109486282D01*
X237830471Y-109476054D01*
X237852993Y-109467996D01*
X237876197Y-109462184D01*
X237899858Y-109458674D01*
X237923750Y-109457500D01*
X238836250Y-109457500D01*
X238860142Y-109458674D01*
G37*
G04 #@! TD.AperFunction*
G04 #@! TA.AperFunction,SMDPad,CuDef*
G36*
X238860142Y-107583674D02*
G01*
X238883803Y-107587184D01*
X238907007Y-107592996D01*
X238929529Y-107601054D01*
X238951153Y-107611282D01*
X238971670Y-107623579D01*
X238990883Y-107637829D01*
X239008607Y-107653893D01*
X239024671Y-107671617D01*
X239038921Y-107690830D01*
X239051218Y-107711347D01*
X239061446Y-107732971D01*
X239069504Y-107755493D01*
X239075316Y-107778697D01*
X239078826Y-107802358D01*
X239080000Y-107826250D01*
X239080000Y-108313750D01*
X239078826Y-108337642D01*
X239075316Y-108361303D01*
X239069504Y-108384507D01*
X239061446Y-108407029D01*
X239051218Y-108428653D01*
X239038921Y-108449170D01*
X239024671Y-108468383D01*
X239008607Y-108486107D01*
X238990883Y-108502171D01*
X238971670Y-108516421D01*
X238951153Y-108528718D01*
X238929529Y-108538946D01*
X238907007Y-108547004D01*
X238883803Y-108552816D01*
X238860142Y-108556326D01*
X238836250Y-108557500D01*
X237923750Y-108557500D01*
X237899858Y-108556326D01*
X237876197Y-108552816D01*
X237852993Y-108547004D01*
X237830471Y-108538946D01*
X237808847Y-108528718D01*
X237788330Y-108516421D01*
X237769117Y-108502171D01*
X237751393Y-108486107D01*
X237735329Y-108468383D01*
X237721079Y-108449170D01*
X237708782Y-108428653D01*
X237698554Y-108407029D01*
X237690496Y-108384507D01*
X237684684Y-108361303D01*
X237681174Y-108337642D01*
X237680000Y-108313750D01*
X237680000Y-107826250D01*
X237681174Y-107802358D01*
X237684684Y-107778697D01*
X237690496Y-107755493D01*
X237698554Y-107732971D01*
X237708782Y-107711347D01*
X237721079Y-107690830D01*
X237735329Y-107671617D01*
X237751393Y-107653893D01*
X237769117Y-107637829D01*
X237788330Y-107623579D01*
X237808847Y-107611282D01*
X237830471Y-107601054D01*
X237852993Y-107592996D01*
X237876197Y-107587184D01*
X237899858Y-107583674D01*
X237923750Y-107582500D01*
X238836250Y-107582500D01*
X238860142Y-107583674D01*
G37*
G04 #@! TD.AperFunction*
G04 #@! TA.AperFunction,SMDPad,CuDef*
G36*
X231850142Y-117101174D02*
G01*
X231873803Y-117104684D01*
X231897007Y-117110496D01*
X231919529Y-117118554D01*
X231941153Y-117128782D01*
X231961670Y-117141079D01*
X231980883Y-117155329D01*
X231998607Y-117171393D01*
X232014671Y-117189117D01*
X232028921Y-117208330D01*
X232041218Y-117228847D01*
X232051446Y-117250471D01*
X232059504Y-117272993D01*
X232065316Y-117296197D01*
X232068826Y-117319858D01*
X232070000Y-117343750D01*
X232070000Y-118256250D01*
X232068826Y-118280142D01*
X232065316Y-118303803D01*
X232059504Y-118327007D01*
X232051446Y-118349529D01*
X232041218Y-118371153D01*
X232028921Y-118391670D01*
X232014671Y-118410883D01*
X231998607Y-118428607D01*
X231980883Y-118444671D01*
X231961670Y-118458921D01*
X231941153Y-118471218D01*
X231919529Y-118481446D01*
X231897007Y-118489504D01*
X231873803Y-118495316D01*
X231850142Y-118498826D01*
X231826250Y-118500000D01*
X231338750Y-118500000D01*
X231314858Y-118498826D01*
X231291197Y-118495316D01*
X231267993Y-118489504D01*
X231245471Y-118481446D01*
X231223847Y-118471218D01*
X231203330Y-118458921D01*
X231184117Y-118444671D01*
X231166393Y-118428607D01*
X231150329Y-118410883D01*
X231136079Y-118391670D01*
X231123782Y-118371153D01*
X231113554Y-118349529D01*
X231105496Y-118327007D01*
X231099684Y-118303803D01*
X231096174Y-118280142D01*
X231095000Y-118256250D01*
X231095000Y-117343750D01*
X231096174Y-117319858D01*
X231099684Y-117296197D01*
X231105496Y-117272993D01*
X231113554Y-117250471D01*
X231123782Y-117228847D01*
X231136079Y-117208330D01*
X231150329Y-117189117D01*
X231166393Y-117171393D01*
X231184117Y-117155329D01*
X231203330Y-117141079D01*
X231223847Y-117128782D01*
X231245471Y-117118554D01*
X231267993Y-117110496D01*
X231291197Y-117104684D01*
X231314858Y-117101174D01*
X231338750Y-117100000D01*
X231826250Y-117100000D01*
X231850142Y-117101174D01*
G37*
G04 #@! TD.AperFunction*
G04 #@! TA.AperFunction,SMDPad,CuDef*
G36*
X229975142Y-117101174D02*
G01*
X229998803Y-117104684D01*
X230022007Y-117110496D01*
X230044529Y-117118554D01*
X230066153Y-117128782D01*
X230086670Y-117141079D01*
X230105883Y-117155329D01*
X230123607Y-117171393D01*
X230139671Y-117189117D01*
X230153921Y-117208330D01*
X230166218Y-117228847D01*
X230176446Y-117250471D01*
X230184504Y-117272993D01*
X230190316Y-117296197D01*
X230193826Y-117319858D01*
X230195000Y-117343750D01*
X230195000Y-118256250D01*
X230193826Y-118280142D01*
X230190316Y-118303803D01*
X230184504Y-118327007D01*
X230176446Y-118349529D01*
X230166218Y-118371153D01*
X230153921Y-118391670D01*
X230139671Y-118410883D01*
X230123607Y-118428607D01*
X230105883Y-118444671D01*
X230086670Y-118458921D01*
X230066153Y-118471218D01*
X230044529Y-118481446D01*
X230022007Y-118489504D01*
X229998803Y-118495316D01*
X229975142Y-118498826D01*
X229951250Y-118500000D01*
X229463750Y-118500000D01*
X229439858Y-118498826D01*
X229416197Y-118495316D01*
X229392993Y-118489504D01*
X229370471Y-118481446D01*
X229348847Y-118471218D01*
X229328330Y-118458921D01*
X229309117Y-118444671D01*
X229291393Y-118428607D01*
X229275329Y-118410883D01*
X229261079Y-118391670D01*
X229248782Y-118371153D01*
X229238554Y-118349529D01*
X229230496Y-118327007D01*
X229224684Y-118303803D01*
X229221174Y-118280142D01*
X229220000Y-118256250D01*
X229220000Y-117343750D01*
X229221174Y-117319858D01*
X229224684Y-117296197D01*
X229230496Y-117272993D01*
X229238554Y-117250471D01*
X229248782Y-117228847D01*
X229261079Y-117208330D01*
X229275329Y-117189117D01*
X229291393Y-117171393D01*
X229309117Y-117155329D01*
X229328330Y-117141079D01*
X229348847Y-117128782D01*
X229370471Y-117118554D01*
X229392993Y-117110496D01*
X229416197Y-117104684D01*
X229439858Y-117101174D01*
X229463750Y-117100000D01*
X229951250Y-117100000D01*
X229975142Y-117101174D01*
G37*
G04 #@! TD.AperFunction*
D13*
X233045000Y-117800000D03*
X230045000Y-113200000D03*
X233045000Y-107200000D03*
X226445000Y-124000000D03*
D14*
X231582500Y-117800000D02*
X233045000Y-117800000D01*
X228170000Y-113155000D02*
X228600000Y-113155000D01*
X228600000Y-113155000D02*
X228645000Y-113200000D01*
X228645000Y-113200000D02*
X229445000Y-113200000D01*
X229445000Y-113200000D02*
X230045000Y-113200000D01*
X231582500Y-107200000D02*
X233045000Y-107200000D01*
X228170000Y-123455000D02*
X227700000Y-123455000D01*
X227700000Y-123455000D02*
X227645000Y-123400000D01*
X227645000Y-123400000D02*
X227045000Y-123400000D01*
X227045000Y-123400000D02*
X226445000Y-124000000D01*
X228170000Y-119645000D02*
X228600000Y-119645000D01*
X228600000Y-119645000D02*
X228645000Y-119600000D01*
X228645000Y-119600000D02*
X229245000Y-119600000D01*
X229707500Y-119137500D02*
X229707500Y-117800000D01*
X229245000Y-119600000D02*
X229707500Y-119137500D01*
X229707500Y-107200000D02*
X229707500Y-108937500D01*
X229300000Y-109345000D02*
X228170000Y-109345000D01*
X229707500Y-119137500D02*
X229782500Y-119137500D01*
X229782500Y-119137500D02*
X230245000Y-119600000D01*
X230245000Y-119600000D02*
X230245000Y-124400000D01*
X230245000Y-124400000D02*
X229445000Y-125200000D01*
X224285000Y-125200000D02*
X220985000Y-121900000D01*
X229445000Y-125200000D02*
X224285000Y-125200000D01*
X218445000Y-121900000D02*
X220985000Y-121900000D01*
X229707500Y-117100000D02*
X229845000Y-116962500D01*
X229707500Y-117800000D02*
X229707500Y-117100000D01*
X229845000Y-116962500D02*
X229845000Y-115800000D01*
X229845000Y-115800000D02*
X231045000Y-114600000D01*
X231045000Y-114600000D02*
X231045000Y-110400000D01*
X229707500Y-108937500D02*
X229645000Y-109000000D01*
X231045000Y-110400000D02*
X229645000Y-109000000D01*
X229645000Y-109000000D02*
X229300000Y-109345000D01*
D15*
X239105000Y-109220000D02*
X238380000Y-109945000D01*
X241300000Y-109220000D02*
X239105000Y-109220000D01*
X238380000Y-110432500D02*
X238005000Y-110807500D01*
X238380000Y-109945000D02*
X238380000Y-110432500D01*
X238005000Y-110807500D02*
X233280000Y-110807500D01*
X233280000Y-110807500D02*
X232962500Y-110490000D01*
X237672500Y-108070000D02*
X238380000Y-108070000D01*
X236220000Y-109522500D02*
X237672500Y-108070000D01*
X241300000Y-119380000D02*
X240607500Y-119380000D01*
X239442500Y-120545000D02*
X238480000Y-120545000D01*
X240607500Y-119380000D02*
X239442500Y-120545000D01*
X238480000Y-120545000D02*
X237994473Y-121030527D01*
X237994473Y-121030527D02*
X233503027Y-121030527D01*
X237165000Y-119985000D02*
X236220000Y-119985000D01*
X238480000Y-118670000D02*
X237165000Y-119985000D01*
X219595001Y-117970001D02*
X219294999Y-117669999D01*
X221297003Y-117970001D02*
X219595001Y-117970001D01*
X223327002Y-120000000D02*
X221297003Y-117970001D01*
X219294999Y-117669999D02*
X218445000Y-116820000D01*
X223707500Y-120000000D02*
X223327002Y-120000000D01*
X217595001Y-115129999D02*
X218445000Y-114280000D01*
X217294999Y-115430001D02*
X217595001Y-115129999D01*
X219645000Y-118618000D02*
X218997001Y-117970001D01*
X219645000Y-119962000D02*
X219645000Y-118618000D01*
X220193001Y-120510001D02*
X219645000Y-119962000D01*
X217892999Y-117970001D02*
X217294999Y-117372001D01*
X221530001Y-120510001D02*
X220193001Y-120510001D01*
X218997001Y-117970001D02*
X217892999Y-117970001D01*
X223220000Y-122200000D02*
X221530001Y-120510001D01*
X217294999Y-117372001D02*
X217294999Y-115430001D01*
X223707500Y-122200000D02*
X223220000Y-122200000D01*
X217294999Y-110589999D02*
X217595001Y-110890001D01*
X217595001Y-110890001D02*
X218445000Y-111740000D01*
X218205008Y-107199990D02*
X217294999Y-108109999D01*
X217294999Y-108109999D02*
X217294999Y-110589999D01*
X222010689Y-107199990D02*
X218205008Y-107199990D01*
X223707500Y-108896802D02*
X222010689Y-107199990D01*
X223707500Y-109800000D02*
X223707500Y-108896802D01*
X223220000Y-112000000D02*
X222645000Y-111425000D01*
X223707500Y-112000000D02*
X223220000Y-112000000D01*
X222645000Y-111425000D02*
X222645000Y-108400000D01*
X222645000Y-108400000D02*
X221845000Y-107600000D01*
X218445000Y-108150000D02*
X218445000Y-109200000D01*
X218995000Y-107600000D02*
X218445000Y-108150000D01*
X221845000Y-107600000D02*
X218995000Y-107600000D01*
X238100000Y-123455000D02*
X233120000Y-123455000D01*
X241300000Y-124460000D02*
X239105000Y-124460000D01*
X239105000Y-124460000D02*
X238100000Y-123455000D01*
X241300000Y-121920000D02*
X239725000Y-121920000D01*
X239460000Y-122185000D02*
X233120000Y-122185000D01*
X239725000Y-121920000D02*
X239460000Y-122185000D01*
X237490000Y-116840000D02*
X241300000Y-116840000D01*
X236220000Y-118110000D02*
X237490000Y-116840000D01*
X234730000Y-119600000D02*
X236220000Y-118110000D01*
X233120000Y-119645000D02*
X233600000Y-119645000D01*
X233645000Y-119600000D02*
X234730000Y-119600000D01*
X233600000Y-119645000D02*
X233645000Y-119600000D01*
X240155000Y-113155000D02*
X241300000Y-114300000D01*
X233120000Y-113155000D02*
X240155000Y-113155000D01*
X241300000Y-111760000D02*
X240097919Y-111760000D01*
X239972919Y-111885000D02*
X233120000Y-111885000D01*
X240097919Y-111760000D02*
X239972919Y-111885000D01*
X237187500Y-106680000D02*
X241300000Y-106680000D01*
X236220000Y-107647500D02*
X237187500Y-106680000D01*
X234300000Y-109345000D02*
X233120000Y-109345000D01*
X236220000Y-107647500D02*
X235997500Y-107647500D01*
X235997500Y-107647500D02*
X234300000Y-109345000D01*
X226382500Y-110600000D02*
X225582500Y-109800000D01*
X227445000Y-110600000D02*
X226382500Y-110600000D01*
X228170000Y-110615000D02*
X227460000Y-110615000D01*
X227460000Y-110615000D02*
X227445000Y-110600000D01*
X228055000Y-112000000D02*
X228170000Y-111885000D01*
X225582500Y-112000000D02*
X228055000Y-112000000D01*
X227195000Y-120915000D02*
X228170000Y-120915000D01*
X226985000Y-120915000D02*
X227195000Y-120915000D01*
X226070000Y-120000000D02*
X226985000Y-120915000D01*
X225582500Y-120000000D02*
X226070000Y-120000000D01*
X228155000Y-122200000D02*
X228170000Y-122185000D01*
X225582500Y-122200000D02*
X228155000Y-122200000D01*
M02*
