G04 #@! TF.GenerationSoftware,KiCad,Pcbnew,(5.1.5)-3*
G04 #@! TF.CreationDate,2020-02-12T22:52:44+00:00*
G04 #@! TF.ProjectId,pmod-dualrs422,706d6f64-2d64-4756-916c-72733432322e,rev?*
G04 #@! TF.SameCoordinates,Original*
G04 #@! TF.FileFunction,Copper,L2,Bot*
G04 #@! TF.FilePolarity,Positive*
%FSLAX46Y46*%
G04 Gerber Fmt 4.6, Leading zero omitted, Abs format (unit mm)*
G04 Created by KiCad (PCBNEW (5.1.5)-3) date 2020-02-12 22:52:44*
%MOMM*%
%LPD*%
G04 APERTURE LIST*
%ADD10O,1.700000X1.700000*%
%ADD11R,1.700000X1.700000*%
%ADD12C,0.800000*%
%ADD13C,0.400000*%
%ADD14C,0.254000*%
G04 APERTURE END LIST*
D10*
X241330480Y-126989840D03*
X241330480Y-124449840D03*
X241330480Y-121909840D03*
X241330480Y-119369840D03*
X241330480Y-116829840D03*
X241330480Y-114289840D03*
X241330480Y-111749840D03*
X241330480Y-109209840D03*
X241330480Y-106669840D03*
D11*
X241330480Y-104129840D03*
D10*
X220985000Y-121900000D03*
X218445000Y-121900000D03*
X220985000Y-119360000D03*
X218445000Y-119360000D03*
X220985000Y-116820000D03*
X218445000Y-116820000D03*
X220985000Y-114280000D03*
X218445000Y-114280000D03*
X220985000Y-111740000D03*
X218445000Y-111740000D03*
X220985000Y-109200000D03*
D11*
X218445000Y-109200000D03*
D12*
X233045000Y-117800000D03*
X230045000Y-113200000D03*
X233045000Y-107200000D03*
X226445000Y-124000000D03*
D13*
X241330480Y-104129840D02*
X233710480Y-104129840D01*
X233045000Y-104795320D02*
X233045000Y-107200000D01*
X233710480Y-104129840D02*
X233045000Y-104795320D01*
X241330480Y-126989840D02*
X227360480Y-126989840D01*
X226445000Y-126074360D02*
X226445000Y-124000000D01*
X227360480Y-126989840D02*
X226445000Y-126074360D01*
D14*
G36*
X239298480Y-128234840D02*
G01*
X215320480Y-128234840D01*
X215320480Y-121753740D01*
X216960000Y-121753740D01*
X216960000Y-122046260D01*
X217017068Y-122333158D01*
X217129010Y-122603411D01*
X217291525Y-122846632D01*
X217498368Y-123053475D01*
X217741589Y-123215990D01*
X218011842Y-123327932D01*
X218298740Y-123385000D01*
X218591260Y-123385000D01*
X218878158Y-123327932D01*
X219148411Y-123215990D01*
X219391632Y-123053475D01*
X219598475Y-122846632D01*
X219715000Y-122672240D01*
X219831525Y-122846632D01*
X220038368Y-123053475D01*
X220281589Y-123215990D01*
X220551842Y-123327932D01*
X220838740Y-123385000D01*
X221131260Y-123385000D01*
X221418158Y-123327932D01*
X221688411Y-123215990D01*
X221931632Y-123053475D01*
X222138475Y-122846632D01*
X222300990Y-122603411D01*
X222412932Y-122333158D01*
X222470000Y-122046260D01*
X222470000Y-121753740D01*
X222412932Y-121466842D01*
X222300990Y-121196589D01*
X222138475Y-120953368D01*
X221931632Y-120746525D01*
X221749466Y-120624805D01*
X221866355Y-120555178D01*
X222082588Y-120360269D01*
X222256641Y-120126920D01*
X222381825Y-119864099D01*
X222426476Y-119716890D01*
X222305155Y-119487000D01*
X221112000Y-119487000D01*
X221112000Y-119507000D01*
X220858000Y-119507000D01*
X220858000Y-119487000D01*
X218572000Y-119487000D01*
X218572000Y-119507000D01*
X218318000Y-119507000D01*
X218318000Y-119487000D01*
X217124845Y-119487000D01*
X217003524Y-119716890D01*
X217048175Y-119864099D01*
X217173359Y-120126920D01*
X217347412Y-120360269D01*
X217563645Y-120555178D01*
X217680534Y-120624805D01*
X217498368Y-120746525D01*
X217291525Y-120953368D01*
X217129010Y-121196589D01*
X217017068Y-121466842D01*
X216960000Y-121753740D01*
X215320480Y-121753740D01*
X215320480Y-108350000D01*
X216956928Y-108350000D01*
X216956928Y-110050000D01*
X216969188Y-110174482D01*
X217005498Y-110294180D01*
X217064463Y-110404494D01*
X217143815Y-110501185D01*
X217240506Y-110580537D01*
X217350820Y-110639502D01*
X217423380Y-110661513D01*
X217291525Y-110793368D01*
X217129010Y-111036589D01*
X217017068Y-111306842D01*
X216960000Y-111593740D01*
X216960000Y-111886260D01*
X217017068Y-112173158D01*
X217129010Y-112443411D01*
X217291525Y-112686632D01*
X217498368Y-112893475D01*
X217672760Y-113010000D01*
X217498368Y-113126525D01*
X217291525Y-113333368D01*
X217129010Y-113576589D01*
X217017068Y-113846842D01*
X216960000Y-114133740D01*
X216960000Y-114426260D01*
X217017068Y-114713158D01*
X217129010Y-114983411D01*
X217291525Y-115226632D01*
X217498368Y-115433475D01*
X217672760Y-115550000D01*
X217498368Y-115666525D01*
X217291525Y-115873368D01*
X217129010Y-116116589D01*
X217017068Y-116386842D01*
X216960000Y-116673740D01*
X216960000Y-116966260D01*
X217017068Y-117253158D01*
X217129010Y-117523411D01*
X217291525Y-117766632D01*
X217498368Y-117973475D01*
X217680534Y-118095195D01*
X217563645Y-118164822D01*
X217347412Y-118359731D01*
X217173359Y-118593080D01*
X217048175Y-118855901D01*
X217003524Y-119003110D01*
X217124845Y-119233000D01*
X218318000Y-119233000D01*
X218318000Y-119213000D01*
X218572000Y-119213000D01*
X218572000Y-119233000D01*
X220858000Y-119233000D01*
X220858000Y-119213000D01*
X221112000Y-119213000D01*
X221112000Y-119233000D01*
X222305155Y-119233000D01*
X222426476Y-119003110D01*
X222381825Y-118855901D01*
X222256641Y-118593080D01*
X222082588Y-118359731D01*
X221866355Y-118164822D01*
X221749466Y-118095195D01*
X221931632Y-117973475D01*
X222138475Y-117766632D01*
X222300990Y-117523411D01*
X222412932Y-117253158D01*
X222470000Y-116966260D01*
X222470000Y-116673740D01*
X222412932Y-116386842D01*
X222300990Y-116116589D01*
X222138475Y-115873368D01*
X221931632Y-115666525D01*
X221757240Y-115550000D01*
X221931632Y-115433475D01*
X222138475Y-115226632D01*
X222300990Y-114983411D01*
X222412932Y-114713158D01*
X222470000Y-114426260D01*
X222470000Y-114133740D01*
X222412932Y-113846842D01*
X222300990Y-113576589D01*
X222138475Y-113333368D01*
X221931632Y-113126525D01*
X221757240Y-113010000D01*
X221931632Y-112893475D01*
X222138475Y-112686632D01*
X222300990Y-112443411D01*
X222412932Y-112173158D01*
X222470000Y-111886260D01*
X222470000Y-111593740D01*
X222412932Y-111306842D01*
X222300990Y-111036589D01*
X222138475Y-110793368D01*
X221931632Y-110586525D01*
X221757240Y-110470000D01*
X221931632Y-110353475D01*
X222138475Y-110146632D01*
X222300990Y-109903411D01*
X222412932Y-109633158D01*
X222470000Y-109346260D01*
X222470000Y-109053740D01*
X222412932Y-108766842D01*
X222300990Y-108496589D01*
X222138475Y-108253368D01*
X221931632Y-108046525D01*
X221688411Y-107884010D01*
X221418158Y-107772068D01*
X221131260Y-107715000D01*
X220838740Y-107715000D01*
X220551842Y-107772068D01*
X220281589Y-107884010D01*
X220038368Y-108046525D01*
X219906513Y-108178380D01*
X219884502Y-108105820D01*
X219825537Y-107995506D01*
X219746185Y-107898815D01*
X219649494Y-107819463D01*
X219539180Y-107760498D01*
X219419482Y-107724188D01*
X219295000Y-107711928D01*
X217595000Y-107711928D01*
X217470518Y-107724188D01*
X217350820Y-107760498D01*
X217240506Y-107819463D01*
X217143815Y-107898815D01*
X217064463Y-107995506D01*
X217005498Y-108105820D01*
X216969188Y-108225518D01*
X216956928Y-108350000D01*
X215320480Y-108350000D01*
X215320480Y-102884840D01*
X239298480Y-102884840D01*
X239298480Y-128234840D01*
G37*
X239298480Y-128234840D02*
X215320480Y-128234840D01*
X215320480Y-121753740D01*
X216960000Y-121753740D01*
X216960000Y-122046260D01*
X217017068Y-122333158D01*
X217129010Y-122603411D01*
X217291525Y-122846632D01*
X217498368Y-123053475D01*
X217741589Y-123215990D01*
X218011842Y-123327932D01*
X218298740Y-123385000D01*
X218591260Y-123385000D01*
X218878158Y-123327932D01*
X219148411Y-123215990D01*
X219391632Y-123053475D01*
X219598475Y-122846632D01*
X219715000Y-122672240D01*
X219831525Y-122846632D01*
X220038368Y-123053475D01*
X220281589Y-123215990D01*
X220551842Y-123327932D01*
X220838740Y-123385000D01*
X221131260Y-123385000D01*
X221418158Y-123327932D01*
X221688411Y-123215990D01*
X221931632Y-123053475D01*
X222138475Y-122846632D01*
X222300990Y-122603411D01*
X222412932Y-122333158D01*
X222470000Y-122046260D01*
X222470000Y-121753740D01*
X222412932Y-121466842D01*
X222300990Y-121196589D01*
X222138475Y-120953368D01*
X221931632Y-120746525D01*
X221749466Y-120624805D01*
X221866355Y-120555178D01*
X222082588Y-120360269D01*
X222256641Y-120126920D01*
X222381825Y-119864099D01*
X222426476Y-119716890D01*
X222305155Y-119487000D01*
X221112000Y-119487000D01*
X221112000Y-119507000D01*
X220858000Y-119507000D01*
X220858000Y-119487000D01*
X218572000Y-119487000D01*
X218572000Y-119507000D01*
X218318000Y-119507000D01*
X218318000Y-119487000D01*
X217124845Y-119487000D01*
X217003524Y-119716890D01*
X217048175Y-119864099D01*
X217173359Y-120126920D01*
X217347412Y-120360269D01*
X217563645Y-120555178D01*
X217680534Y-120624805D01*
X217498368Y-120746525D01*
X217291525Y-120953368D01*
X217129010Y-121196589D01*
X217017068Y-121466842D01*
X216960000Y-121753740D01*
X215320480Y-121753740D01*
X215320480Y-108350000D01*
X216956928Y-108350000D01*
X216956928Y-110050000D01*
X216969188Y-110174482D01*
X217005498Y-110294180D01*
X217064463Y-110404494D01*
X217143815Y-110501185D01*
X217240506Y-110580537D01*
X217350820Y-110639502D01*
X217423380Y-110661513D01*
X217291525Y-110793368D01*
X217129010Y-111036589D01*
X217017068Y-111306842D01*
X216960000Y-111593740D01*
X216960000Y-111886260D01*
X217017068Y-112173158D01*
X217129010Y-112443411D01*
X217291525Y-112686632D01*
X217498368Y-112893475D01*
X217672760Y-113010000D01*
X217498368Y-113126525D01*
X217291525Y-113333368D01*
X217129010Y-113576589D01*
X217017068Y-113846842D01*
X216960000Y-114133740D01*
X216960000Y-114426260D01*
X217017068Y-114713158D01*
X217129010Y-114983411D01*
X217291525Y-115226632D01*
X217498368Y-115433475D01*
X217672760Y-115550000D01*
X217498368Y-115666525D01*
X217291525Y-115873368D01*
X217129010Y-116116589D01*
X217017068Y-116386842D01*
X216960000Y-116673740D01*
X216960000Y-116966260D01*
X217017068Y-117253158D01*
X217129010Y-117523411D01*
X217291525Y-117766632D01*
X217498368Y-117973475D01*
X217680534Y-118095195D01*
X217563645Y-118164822D01*
X217347412Y-118359731D01*
X217173359Y-118593080D01*
X217048175Y-118855901D01*
X217003524Y-119003110D01*
X217124845Y-119233000D01*
X218318000Y-119233000D01*
X218318000Y-119213000D01*
X218572000Y-119213000D01*
X218572000Y-119233000D01*
X220858000Y-119233000D01*
X220858000Y-119213000D01*
X221112000Y-119213000D01*
X221112000Y-119233000D01*
X222305155Y-119233000D01*
X222426476Y-119003110D01*
X222381825Y-118855901D01*
X222256641Y-118593080D01*
X222082588Y-118359731D01*
X221866355Y-118164822D01*
X221749466Y-118095195D01*
X221931632Y-117973475D01*
X222138475Y-117766632D01*
X222300990Y-117523411D01*
X222412932Y-117253158D01*
X222470000Y-116966260D01*
X222470000Y-116673740D01*
X222412932Y-116386842D01*
X222300990Y-116116589D01*
X222138475Y-115873368D01*
X221931632Y-115666525D01*
X221757240Y-115550000D01*
X221931632Y-115433475D01*
X222138475Y-115226632D01*
X222300990Y-114983411D01*
X222412932Y-114713158D01*
X222470000Y-114426260D01*
X222470000Y-114133740D01*
X222412932Y-113846842D01*
X222300990Y-113576589D01*
X222138475Y-113333368D01*
X221931632Y-113126525D01*
X221757240Y-113010000D01*
X221931632Y-112893475D01*
X222138475Y-112686632D01*
X222300990Y-112443411D01*
X222412932Y-112173158D01*
X222470000Y-111886260D01*
X222470000Y-111593740D01*
X222412932Y-111306842D01*
X222300990Y-111036589D01*
X222138475Y-110793368D01*
X221931632Y-110586525D01*
X221757240Y-110470000D01*
X221931632Y-110353475D01*
X222138475Y-110146632D01*
X222300990Y-109903411D01*
X222412932Y-109633158D01*
X222470000Y-109346260D01*
X222470000Y-109053740D01*
X222412932Y-108766842D01*
X222300990Y-108496589D01*
X222138475Y-108253368D01*
X221931632Y-108046525D01*
X221688411Y-107884010D01*
X221418158Y-107772068D01*
X221131260Y-107715000D01*
X220838740Y-107715000D01*
X220551842Y-107772068D01*
X220281589Y-107884010D01*
X220038368Y-108046525D01*
X219906513Y-108178380D01*
X219884502Y-108105820D01*
X219825537Y-107995506D01*
X219746185Y-107898815D01*
X219649494Y-107819463D01*
X219539180Y-107760498D01*
X219419482Y-107724188D01*
X219295000Y-107711928D01*
X217595000Y-107711928D01*
X217470518Y-107724188D01*
X217350820Y-107760498D01*
X217240506Y-107819463D01*
X217143815Y-107898815D01*
X217064463Y-107995506D01*
X217005498Y-108105820D01*
X216969188Y-108225518D01*
X216956928Y-108350000D01*
X215320480Y-108350000D01*
X215320480Y-102884840D01*
X239298480Y-102884840D01*
X239298480Y-128234840D01*
M02*
