G04 #@! TF.GenerationSoftware,KiCad,Pcbnew,(5.1.5)-3*
G04 #@! TF.CreationDate,2020-02-12T22:52:44+00:00*
G04 #@! TF.ProjectId,pmod-dualrs422,706d6f64-2d64-4756-916c-72733432322e,rev?*
G04 #@! TF.SameCoordinates,Original*
G04 #@! TF.FileFunction,Legend,Top*
G04 #@! TF.FilePolarity,Positive*
%FSLAX46Y46*%
G04 Gerber Fmt 4.6, Leading zero omitted, Abs format (unit mm)*
G04 Created by KiCad (PCBNEW (5.1.5)-3) date 2020-02-12 22:52:44*
%MOMM*%
%LPD*%
G04 APERTURE LIST*
%ADD10C,0.120000*%
%ADD11C,0.150000*%
G04 APERTURE END LIST*
D10*
X214660480Y-106669840D02*
X214660480Y-119369840D01*
X214660480Y-119369840D02*
X214660480Y-106669840D01*
X240060480Y-102859840D02*
X241330480Y-102859840D01*
X240060480Y-104129840D02*
X240060480Y-102859840D01*
X242373409Y-127369840D02*
X242770480Y-127369840D01*
X242373409Y-126609840D02*
X242770480Y-126609840D01*
X251430480Y-127369840D02*
X245430480Y-127369840D01*
X251430480Y-126609840D02*
X251430480Y-127369840D01*
X245430480Y-126609840D02*
X251430480Y-126609840D01*
X242770480Y-125719840D02*
X245430480Y-125719840D01*
X242373409Y-124829840D02*
X242770480Y-124829840D01*
X242373409Y-124069840D02*
X242770480Y-124069840D01*
X251430480Y-124829840D02*
X245430480Y-124829840D01*
X251430480Y-124069840D02*
X251430480Y-124829840D01*
X245430480Y-124069840D02*
X251430480Y-124069840D01*
X242770480Y-123179840D02*
X245430480Y-123179840D01*
X242373409Y-122289840D02*
X242770480Y-122289840D01*
X242373409Y-121529840D02*
X242770480Y-121529840D01*
X251430480Y-122289840D02*
X245430480Y-122289840D01*
X251430480Y-121529840D02*
X251430480Y-122289840D01*
X245430480Y-121529840D02*
X251430480Y-121529840D01*
X242770480Y-120639840D02*
X245430480Y-120639840D01*
X242373409Y-119749840D02*
X242770480Y-119749840D01*
X242373409Y-118989840D02*
X242770480Y-118989840D01*
X251430480Y-119749840D02*
X245430480Y-119749840D01*
X251430480Y-118989840D02*
X251430480Y-119749840D01*
X245430480Y-118989840D02*
X251430480Y-118989840D01*
X242770480Y-118099840D02*
X245430480Y-118099840D01*
X242373409Y-117209840D02*
X242770480Y-117209840D01*
X242373409Y-116449840D02*
X242770480Y-116449840D01*
X251430480Y-117209840D02*
X245430480Y-117209840D01*
X251430480Y-116449840D02*
X251430480Y-117209840D01*
X245430480Y-116449840D02*
X251430480Y-116449840D01*
X242770480Y-115559840D02*
X245430480Y-115559840D01*
X242373409Y-114669840D02*
X242770480Y-114669840D01*
X242373409Y-113909840D02*
X242770480Y-113909840D01*
X251430480Y-114669840D02*
X245430480Y-114669840D01*
X251430480Y-113909840D02*
X251430480Y-114669840D01*
X245430480Y-113909840D02*
X251430480Y-113909840D01*
X242770480Y-113019840D02*
X245430480Y-113019840D01*
X242373409Y-112129840D02*
X242770480Y-112129840D01*
X242373409Y-111369840D02*
X242770480Y-111369840D01*
X251430480Y-112129840D02*
X245430480Y-112129840D01*
X251430480Y-111369840D02*
X251430480Y-112129840D01*
X245430480Y-111369840D02*
X251430480Y-111369840D01*
X242770480Y-110479840D02*
X245430480Y-110479840D01*
X242373409Y-109589840D02*
X242770480Y-109589840D01*
X242373409Y-108829840D02*
X242770480Y-108829840D01*
X251430480Y-109589840D02*
X245430480Y-109589840D01*
X251430480Y-108829840D02*
X251430480Y-109589840D01*
X245430480Y-108829840D02*
X251430480Y-108829840D01*
X242770480Y-107939840D02*
X245430480Y-107939840D01*
X242373409Y-107049840D02*
X242770480Y-107049840D01*
X242373409Y-106289840D02*
X242770480Y-106289840D01*
X251430480Y-107049840D02*
X245430480Y-107049840D01*
X251430480Y-106289840D02*
X251430480Y-107049840D01*
X245430480Y-106289840D02*
X251430480Y-106289840D01*
X242770480Y-105399840D02*
X245430480Y-105399840D01*
X242440480Y-104509840D02*
X242770480Y-104509840D01*
X242440480Y-103749840D02*
X242770480Y-103749840D01*
X245430480Y-104409840D02*
X251430480Y-104409840D01*
X245430480Y-104289840D02*
X251430480Y-104289840D01*
X245430480Y-104169840D02*
X251430480Y-104169840D01*
X245430480Y-104049840D02*
X251430480Y-104049840D01*
X245430480Y-103929840D02*
X251430480Y-103929840D01*
X245430480Y-103809840D02*
X251430480Y-103809840D01*
X251430480Y-104509840D02*
X245430480Y-104509840D01*
X251430480Y-103749840D02*
X251430480Y-104509840D01*
X245430480Y-103749840D02*
X251430480Y-103749840D01*
X245430480Y-102799840D02*
X242770480Y-102799840D01*
X245430480Y-128319840D02*
X245430480Y-102799840D01*
X242770480Y-128319840D02*
X245430480Y-128319840D01*
X242770480Y-102799840D02*
X242770480Y-128319840D01*
X230386422Y-107910000D02*
X230903578Y-107910000D01*
X230386422Y-106490000D02*
X230903578Y-106490000D01*
X224903578Y-121490000D02*
X224386422Y-121490000D01*
X224903578Y-122910000D02*
X224386422Y-122910000D01*
X224903578Y-119290000D02*
X224386422Y-119290000D01*
X224903578Y-120710000D02*
X224386422Y-120710000D01*
X224903578Y-111290000D02*
X224386422Y-111290000D01*
X224903578Y-112710000D02*
X224386422Y-112710000D01*
X224903578Y-109090000D02*
X224386422Y-109090000D01*
X224903578Y-110510000D02*
X224386422Y-110510000D01*
X217115000Y-107870000D02*
X218445000Y-107870000D01*
X217115000Y-109200000D02*
X217115000Y-107870000D01*
X219715000Y-107870000D02*
X222315000Y-107870000D01*
X219715000Y-110470000D02*
X219715000Y-107870000D01*
X217115000Y-110470000D02*
X219715000Y-110470000D01*
X222315000Y-107870000D02*
X222315000Y-123230000D01*
X217115000Y-110470000D02*
X217115000Y-123230000D01*
X217115000Y-123230000D02*
X222315000Y-123230000D01*
X230645000Y-118990000D02*
X227195000Y-118990000D01*
X230645000Y-118990000D02*
X232595000Y-118990000D01*
X230645000Y-124110000D02*
X228695000Y-124110000D01*
X230645000Y-124110000D02*
X232595000Y-124110000D01*
X230645000Y-108690000D02*
X227195000Y-108690000D01*
X230645000Y-108690000D02*
X232595000Y-108690000D01*
X230645000Y-113810000D02*
X228695000Y-113810000D01*
X230645000Y-113810000D02*
X232595000Y-113810000D01*
X235510000Y-118788922D02*
X235510000Y-119306078D01*
X236930000Y-118788922D02*
X236930000Y-119306078D01*
X235510000Y-108326422D02*
X235510000Y-108843578D01*
X236930000Y-108326422D02*
X236930000Y-108843578D01*
X237770000Y-119348922D02*
X237770000Y-119866078D01*
X239190000Y-119348922D02*
X239190000Y-119866078D01*
X237670000Y-108748922D02*
X237670000Y-109266078D01*
X239090000Y-108748922D02*
X239090000Y-109266078D01*
X230386422Y-118510000D02*
X230903578Y-118510000D01*
X230386422Y-117090000D02*
X230903578Y-117090000D01*
D11*
X238457146Y-103582220D02*
X238457146Y-104296506D01*
X238409527Y-104439363D01*
X238314289Y-104534601D01*
X238171432Y-104582220D01*
X238076194Y-104582220D01*
X238885718Y-103677459D02*
X238933337Y-103629840D01*
X239028575Y-103582220D01*
X239266670Y-103582220D01*
X239361908Y-103629840D01*
X239409527Y-103677459D01*
X239457146Y-103772697D01*
X239457146Y-103867935D01*
X239409527Y-104010792D01*
X238838099Y-104582220D01*
X239457146Y-104582220D01*
X230432313Y-105756982D02*
X230384694Y-105804601D01*
X230241837Y-105852220D01*
X230146599Y-105852220D01*
X230003741Y-105804601D01*
X229908503Y-105709363D01*
X229860884Y-105614125D01*
X229813265Y-105423649D01*
X229813265Y-105280792D01*
X229860884Y-105090316D01*
X229908503Y-104995078D01*
X230003741Y-104899840D01*
X230146599Y-104852220D01*
X230241837Y-104852220D01*
X230384694Y-104899840D01*
X230432313Y-104947459D01*
X230813265Y-104947459D02*
X230860884Y-104899840D01*
X230956122Y-104852220D01*
X231194218Y-104852220D01*
X231289456Y-104899840D01*
X231337075Y-104947459D01*
X231384694Y-105042697D01*
X231384694Y-105137935D01*
X231337075Y-105280792D01*
X230765646Y-105852220D01*
X231384694Y-105852220D01*
X224526813Y-124521220D02*
X224193480Y-124045030D01*
X223955384Y-124521220D02*
X223955384Y-123521220D01*
X224336337Y-123521220D01*
X224431575Y-123568840D01*
X224479194Y-123616459D01*
X224526813Y-123711697D01*
X224526813Y-123854554D01*
X224479194Y-123949792D01*
X224431575Y-123997411D01*
X224336337Y-124045030D01*
X223955384Y-124045030D01*
X225383956Y-123854554D02*
X225383956Y-124521220D01*
X225145860Y-123473601D02*
X224907765Y-124187887D01*
X225526813Y-124187887D01*
X224478333Y-118742720D02*
X224145000Y-118266530D01*
X223906904Y-118742720D02*
X223906904Y-117742720D01*
X224287857Y-117742720D01*
X224383095Y-117790340D01*
X224430714Y-117837959D01*
X224478333Y-117933197D01*
X224478333Y-118076054D01*
X224430714Y-118171292D01*
X224383095Y-118218911D01*
X224287857Y-118266530D01*
X223906904Y-118266530D01*
X224811666Y-117742720D02*
X225430714Y-117742720D01*
X225097380Y-118123673D01*
X225240238Y-118123673D01*
X225335476Y-118171292D01*
X225383095Y-118218911D01*
X225430714Y-118314149D01*
X225430714Y-118552244D01*
X225383095Y-118647482D01*
X225335476Y-118695101D01*
X225240238Y-118742720D01*
X224954523Y-118742720D01*
X224859285Y-118695101D01*
X224811666Y-118647482D01*
X224478333Y-114102380D02*
X224145000Y-113626190D01*
X223906904Y-114102380D02*
X223906904Y-113102380D01*
X224287857Y-113102380D01*
X224383095Y-113150000D01*
X224430714Y-113197619D01*
X224478333Y-113292857D01*
X224478333Y-113435714D01*
X224430714Y-113530952D01*
X224383095Y-113578571D01*
X224287857Y-113626190D01*
X223906904Y-113626190D01*
X224859285Y-113197619D02*
X224906904Y-113150000D01*
X225002142Y-113102380D01*
X225240238Y-113102380D01*
X225335476Y-113150000D01*
X225383095Y-113197619D01*
X225430714Y-113292857D01*
X225430714Y-113388095D01*
X225383095Y-113530952D01*
X224811666Y-114102380D01*
X225430714Y-114102380D01*
X224526813Y-108392220D02*
X224193480Y-107916030D01*
X223955384Y-108392220D02*
X223955384Y-107392220D01*
X224336337Y-107392220D01*
X224431575Y-107439840D01*
X224479194Y-107487459D01*
X224526813Y-107582697D01*
X224526813Y-107725554D01*
X224479194Y-107820792D01*
X224431575Y-107868411D01*
X224336337Y-107916030D01*
X223955384Y-107916030D01*
X225479194Y-108392220D02*
X224907765Y-108392220D01*
X225193480Y-108392220D02*
X225193480Y-107392220D01*
X225098241Y-107535078D01*
X225003003Y-107630316D01*
X224907765Y-107677935D01*
X219381666Y-106322380D02*
X219381666Y-107036666D01*
X219334047Y-107179523D01*
X219238809Y-107274761D01*
X219095952Y-107322380D01*
X219000714Y-107322380D01*
X220381666Y-107322380D02*
X219810238Y-107322380D01*
X220095952Y-107322380D02*
X220095952Y-106322380D01*
X220000714Y-106465238D01*
X219905476Y-106560476D01*
X219810238Y-106608095D01*
X227043075Y-117552220D02*
X227043075Y-118361744D01*
X227090694Y-118456982D01*
X227138313Y-118504601D01*
X227233551Y-118552220D01*
X227424027Y-118552220D01*
X227519265Y-118504601D01*
X227566884Y-118456982D01*
X227614503Y-118361744D01*
X227614503Y-117552220D01*
X228043075Y-117647459D02*
X228090694Y-117599840D01*
X228185932Y-117552220D01*
X228424027Y-117552220D01*
X228519265Y-117599840D01*
X228566884Y-117647459D01*
X228614503Y-117742697D01*
X228614503Y-117837935D01*
X228566884Y-117980792D01*
X227995456Y-118552220D01*
X228614503Y-118552220D01*
X226916075Y-107138220D02*
X226916075Y-107947744D01*
X226963694Y-108042982D01*
X227011313Y-108090601D01*
X227106551Y-108138220D01*
X227297027Y-108138220D01*
X227392265Y-108090601D01*
X227439884Y-108042982D01*
X227487503Y-107947744D01*
X227487503Y-107138220D01*
X228487503Y-108138220D02*
X227916075Y-108138220D01*
X228201789Y-108138220D02*
X228201789Y-107138220D01*
X228106551Y-107281078D01*
X228011313Y-107376316D01*
X227916075Y-107423935D01*
X236639360Y-123124197D02*
X236163170Y-123457530D01*
X236639360Y-123695625D02*
X235639360Y-123695625D01*
X235639360Y-123314673D01*
X235686980Y-123219435D01*
X235734599Y-123171816D01*
X235829837Y-123124197D01*
X235972694Y-123124197D01*
X236067932Y-123171816D01*
X236115551Y-123219435D01*
X236163170Y-123314673D01*
X236163170Y-123695625D01*
X236639360Y-122171816D02*
X236639360Y-122743244D01*
X236639360Y-122457530D02*
X235639360Y-122457530D01*
X235782218Y-122552768D01*
X235877456Y-122648006D01*
X235925075Y-122743244D01*
X235639360Y-121552768D02*
X235639360Y-121457530D01*
X235686980Y-121362292D01*
X235734599Y-121314673D01*
X235829837Y-121267054D01*
X236020313Y-121219435D01*
X236258408Y-121219435D01*
X236448884Y-121267054D01*
X236544122Y-121314673D01*
X236591741Y-121362292D01*
X236639360Y-121457530D01*
X236639360Y-121552768D01*
X236591741Y-121648006D01*
X236544122Y-121695625D01*
X236448884Y-121743244D01*
X236258408Y-121790863D01*
X236020313Y-121790863D01*
X235829837Y-121743244D01*
X235734599Y-121695625D01*
X235686980Y-121648006D01*
X235639360Y-121552768D01*
X236702860Y-111916506D02*
X236226670Y-112249840D01*
X236702860Y-112487935D02*
X235702860Y-112487935D01*
X235702860Y-112106982D01*
X235750480Y-112011744D01*
X235798099Y-111964125D01*
X235893337Y-111916506D01*
X236036194Y-111916506D01*
X236131432Y-111964125D01*
X236179051Y-112011744D01*
X236226670Y-112106982D01*
X236226670Y-112487935D01*
X236702860Y-111440316D02*
X236702860Y-111249840D01*
X236655241Y-111154601D01*
X236607622Y-111106982D01*
X236464765Y-111011744D01*
X236274289Y-110964125D01*
X235893337Y-110964125D01*
X235798099Y-111011744D01*
X235750480Y-111059363D01*
X235702860Y-111154601D01*
X235702860Y-111345078D01*
X235750480Y-111440316D01*
X235798099Y-111487935D01*
X235893337Y-111535554D01*
X236131432Y-111535554D01*
X236226670Y-111487935D01*
X236274289Y-111440316D01*
X236321908Y-111345078D01*
X236321908Y-111154601D01*
X236274289Y-111059363D01*
X236226670Y-111011744D01*
X236131432Y-110964125D01*
X238802142Y-122566666D02*
X238849761Y-122614285D01*
X238897380Y-122757142D01*
X238897380Y-122852380D01*
X238849761Y-122995238D01*
X238754523Y-123090476D01*
X238659285Y-123138095D01*
X238468809Y-123185714D01*
X238325952Y-123185714D01*
X238135476Y-123138095D01*
X238040238Y-123090476D01*
X237945000Y-122995238D01*
X237897380Y-122852380D01*
X237897380Y-122757142D01*
X237945000Y-122614285D01*
X237992619Y-122566666D01*
X238230714Y-121709523D02*
X238897380Y-121709523D01*
X237849761Y-121947619D02*
X238564047Y-122185714D01*
X238564047Y-121566666D01*
X238802142Y-112066666D02*
X238849761Y-112114285D01*
X238897380Y-112257142D01*
X238897380Y-112352380D01*
X238849761Y-112495238D01*
X238754523Y-112590476D01*
X238659285Y-112638095D01*
X238468809Y-112685714D01*
X238325952Y-112685714D01*
X238135476Y-112638095D01*
X238040238Y-112590476D01*
X237945000Y-112495238D01*
X237897380Y-112352380D01*
X237897380Y-112257142D01*
X237945000Y-112114285D01*
X237992619Y-112066666D01*
X237897380Y-111733333D02*
X237897380Y-111114285D01*
X238278333Y-111447619D01*
X238278333Y-111304761D01*
X238325952Y-111209523D01*
X238373571Y-111161904D01*
X238468809Y-111114285D01*
X238706904Y-111114285D01*
X238802142Y-111161904D01*
X238849761Y-111209523D01*
X238897380Y-111304761D01*
X238897380Y-111590476D01*
X238849761Y-111685714D01*
X238802142Y-111733333D01*
X230478333Y-116507142D02*
X230430714Y-116554761D01*
X230287857Y-116602380D01*
X230192619Y-116602380D01*
X230049761Y-116554761D01*
X229954523Y-116459523D01*
X229906904Y-116364285D01*
X229859285Y-116173809D01*
X229859285Y-116030952D01*
X229906904Y-115840476D01*
X229954523Y-115745238D01*
X230049761Y-115650000D01*
X230192619Y-115602380D01*
X230287857Y-115602380D01*
X230430714Y-115650000D01*
X230478333Y-115697619D01*
X231430714Y-116602380D02*
X230859285Y-116602380D01*
X231145000Y-116602380D02*
X231145000Y-115602380D01*
X231049761Y-115745238D01*
X230954523Y-115840476D01*
X230859285Y-115888095D01*
M02*
