G04 #@! TF.GenerationSoftware,KiCad,Pcbnew,(5.1.5)-3*
G04 #@! TF.CreationDate,2020-02-12T22:52:44+00:00*
G04 #@! TF.ProjectId,pmod-dualrs422,706d6f64-2d64-4756-916c-72733432322e,rev?*
G04 #@! TF.SameCoordinates,Original*
G04 #@! TF.FileFunction,Legend,Bot*
G04 #@! TF.FilePolarity,Positive*
%FSLAX46Y46*%
G04 Gerber Fmt 4.6, Leading zero omitted, Abs format (unit mm)*
G04 Created by KiCad (PCBNEW (5.1.5)-3) date 2020-02-12 22:52:44*
%MOMM*%
%LPD*%
G04 APERTURE LIST*
%ADD10C,0.150000*%
%ADD11C,0.300000*%
G04 APERTURE END LIST*
D10*
X243862575Y-103693340D02*
X243957813Y-103645720D01*
X244100670Y-103645720D01*
X244243527Y-103693340D01*
X244338765Y-103788578D01*
X244386384Y-103883816D01*
X244434003Y-104074292D01*
X244434003Y-104217149D01*
X244386384Y-104407625D01*
X244338765Y-104502863D01*
X244243527Y-104598101D01*
X244100670Y-104645720D01*
X244005432Y-104645720D01*
X243862575Y-104598101D01*
X243814956Y-104550482D01*
X243814956Y-104217149D01*
X244005432Y-104217149D01*
X243862575Y-126616840D02*
X243957813Y-126569220D01*
X244100670Y-126569220D01*
X244243527Y-126616840D01*
X244338765Y-126712078D01*
X244386384Y-126807316D01*
X244434003Y-126997792D01*
X244434003Y-127140649D01*
X244386384Y-127331125D01*
X244338765Y-127426363D01*
X244243527Y-127521601D01*
X244100670Y-127569220D01*
X244005432Y-127569220D01*
X243862575Y-127521601D01*
X243814956Y-127473982D01*
X243814956Y-127140649D01*
X244005432Y-127140649D01*
X223288575Y-118869840D02*
X223383813Y-118822220D01*
X223526670Y-118822220D01*
X223669527Y-118869840D01*
X223764765Y-118965078D01*
X223812384Y-119060316D01*
X223860003Y-119250792D01*
X223860003Y-119393649D01*
X223812384Y-119584125D01*
X223764765Y-119679363D01*
X223669527Y-119774601D01*
X223526670Y-119822220D01*
X223431432Y-119822220D01*
X223288575Y-119774601D01*
X223240956Y-119726982D01*
X223240956Y-119393649D01*
X223431432Y-119393649D01*
X224947384Y-121362220D02*
X224328337Y-121362220D01*
X224661670Y-121743173D01*
X224518813Y-121743173D01*
X224423575Y-121790792D01*
X224375956Y-121838411D01*
X224328337Y-121933649D01*
X224328337Y-122171744D01*
X224375956Y-122266982D01*
X224423575Y-122314601D01*
X224518813Y-122362220D01*
X224804527Y-122362220D01*
X224899765Y-122314601D01*
X224947384Y-122266982D01*
X224042622Y-121362220D02*
X223709289Y-122362220D01*
X223375956Y-121362220D01*
X216692384Y-121362220D02*
X216073337Y-121362220D01*
X216406670Y-121743173D01*
X216263813Y-121743173D01*
X216168575Y-121790792D01*
X216120956Y-121838411D01*
X216073337Y-121933649D01*
X216073337Y-122171744D01*
X216120956Y-122266982D01*
X216168575Y-122314601D01*
X216263813Y-122362220D01*
X216549527Y-122362220D01*
X216644765Y-122314601D01*
X216692384Y-122266982D01*
X215787622Y-121362220D02*
X215454289Y-122362220D01*
X215120956Y-121362220D01*
X216303575Y-118869840D02*
X216398813Y-118822220D01*
X216541670Y-118822220D01*
X216684527Y-118869840D01*
X216779765Y-118965078D01*
X216827384Y-119060316D01*
X216875003Y-119250792D01*
X216875003Y-119393649D01*
X216827384Y-119584125D01*
X216779765Y-119679363D01*
X216684527Y-119774601D01*
X216541670Y-119822220D01*
X216446432Y-119822220D01*
X216303575Y-119774601D01*
X216255956Y-119726982D01*
X216255956Y-119393649D01*
X216446432Y-119393649D01*
X216692384Y-108662220D02*
X216120956Y-108662220D01*
X216406670Y-109662220D02*
X216406670Y-108662220D01*
X215263813Y-109662220D02*
X215835241Y-109662220D01*
X215549527Y-109662220D02*
X215549527Y-108662220D01*
X215644765Y-108805078D01*
X215740003Y-108900316D01*
X215835241Y-108947935D01*
X216097146Y-112202220D02*
X216430480Y-111726030D01*
X216668575Y-112202220D02*
X216668575Y-111202220D01*
X216287622Y-111202220D01*
X216192384Y-111249840D01*
X216144765Y-111297459D01*
X216097146Y-111392697D01*
X216097146Y-111535554D01*
X216144765Y-111630792D01*
X216192384Y-111678411D01*
X216287622Y-111726030D01*
X216668575Y-111726030D01*
X215144765Y-112202220D02*
X215716194Y-112202220D01*
X215430480Y-112202220D02*
X215430480Y-111202220D01*
X215525718Y-111345078D01*
X215620956Y-111440316D01*
X215716194Y-111487935D01*
X216097146Y-117282220D02*
X216430480Y-116806030D01*
X216668575Y-117282220D02*
X216668575Y-116282220D01*
X216287622Y-116282220D01*
X216192384Y-116329840D01*
X216144765Y-116377459D01*
X216097146Y-116472697D01*
X216097146Y-116615554D01*
X216144765Y-116710792D01*
X216192384Y-116758411D01*
X216287622Y-116806030D01*
X216668575Y-116806030D01*
X215716194Y-116377459D02*
X215668575Y-116329840D01*
X215573337Y-116282220D01*
X215335241Y-116282220D01*
X215240003Y-116329840D01*
X215192384Y-116377459D01*
X215144765Y-116472697D01*
X215144765Y-116567935D01*
X215192384Y-116710792D01*
X215763813Y-117282220D01*
X215144765Y-117282220D01*
X216692384Y-113742220D02*
X216120956Y-113742220D01*
X216406670Y-114742220D02*
X216406670Y-113742220D01*
X215835241Y-113837459D02*
X215787622Y-113789840D01*
X215692384Y-113742220D01*
X215454289Y-113742220D01*
X215359051Y-113789840D01*
X215311432Y-113837459D01*
X215263813Y-113932697D01*
X215263813Y-114027935D01*
X215311432Y-114170792D01*
X215882860Y-114742220D01*
X215263813Y-114742220D01*
D11*
X237142622Y-112413411D02*
X237142622Y-110913411D01*
X236785480Y-110913411D01*
X236571194Y-110984840D01*
X236428337Y-111127697D01*
X236356908Y-111270554D01*
X236285480Y-111556268D01*
X236285480Y-111770554D01*
X236356908Y-112056268D01*
X236428337Y-112199125D01*
X236571194Y-112341982D01*
X236785480Y-112413411D01*
X237142622Y-112413411D01*
X235642622Y-110913411D02*
X235642622Y-112127697D01*
X235571194Y-112270554D01*
X235499765Y-112341982D01*
X235356908Y-112413411D01*
X235071194Y-112413411D01*
X234928337Y-112341982D01*
X234856908Y-112270554D01*
X234785480Y-112127697D01*
X234785480Y-110913411D01*
X234142622Y-111984840D02*
X233428337Y-111984840D01*
X234285480Y-112413411D02*
X233785480Y-110913411D01*
X233285480Y-112413411D01*
X232071194Y-112413411D02*
X232785480Y-112413411D01*
X232785480Y-110913411D01*
X229571194Y-112413411D02*
X230071194Y-111699125D01*
X230428337Y-112413411D02*
X230428337Y-110913411D01*
X229856908Y-110913411D01*
X229714051Y-110984840D01*
X229642622Y-111056268D01*
X229571194Y-111199125D01*
X229571194Y-111413411D01*
X229642622Y-111556268D01*
X229714051Y-111627697D01*
X229856908Y-111699125D01*
X230428337Y-111699125D01*
X228999765Y-112341982D02*
X228785480Y-112413411D01*
X228428337Y-112413411D01*
X228285480Y-112341982D01*
X228214051Y-112270554D01*
X228142622Y-112127697D01*
X228142622Y-111984840D01*
X228214051Y-111841982D01*
X228285480Y-111770554D01*
X228428337Y-111699125D01*
X228714051Y-111627697D01*
X228856908Y-111556268D01*
X228928337Y-111484840D01*
X228999765Y-111341982D01*
X228999765Y-111199125D01*
X228928337Y-111056268D01*
X228856908Y-110984840D01*
X228714051Y-110913411D01*
X228356908Y-110913411D01*
X228142622Y-110984840D01*
X226856908Y-111413411D02*
X226856908Y-112413411D01*
X227214051Y-110841982D02*
X227571194Y-111913411D01*
X226642622Y-111913411D01*
X226142622Y-111056268D02*
X226071194Y-110984840D01*
X225928337Y-110913411D01*
X225571194Y-110913411D01*
X225428337Y-110984840D01*
X225356908Y-111056268D01*
X225285480Y-111199125D01*
X225285480Y-111341982D01*
X225356908Y-111556268D01*
X226214051Y-112413411D01*
X225285480Y-112413411D01*
X224714051Y-111056268D02*
X224642622Y-110984840D01*
X224499765Y-110913411D01*
X224142622Y-110913411D01*
X223999765Y-110984840D01*
X223928337Y-111056268D01*
X223856908Y-111199125D01*
X223856908Y-111341982D01*
X223928337Y-111556268D01*
X224785480Y-112413411D01*
X223856908Y-112413411D01*
X233321194Y-114963411D02*
X233321194Y-113463411D01*
X232749765Y-113463411D01*
X232606908Y-113534840D01*
X232535480Y-113606268D01*
X232464051Y-113749125D01*
X232464051Y-113963411D01*
X232535480Y-114106268D01*
X232606908Y-114177697D01*
X232749765Y-114249125D01*
X233321194Y-114249125D01*
X231821194Y-114963411D02*
X231821194Y-113463411D01*
X231321194Y-114534840D01*
X230821194Y-113463411D01*
X230821194Y-114963411D01*
X229821194Y-113463411D02*
X229535480Y-113463411D01*
X229392622Y-113534840D01*
X229249765Y-113677697D01*
X229178337Y-113963411D01*
X229178337Y-114463411D01*
X229249765Y-114749125D01*
X229392622Y-114891982D01*
X229535480Y-114963411D01*
X229821194Y-114963411D01*
X229964051Y-114891982D01*
X230106908Y-114749125D01*
X230178337Y-114463411D01*
X230178337Y-113963411D01*
X230106908Y-113677697D01*
X229964051Y-113534840D01*
X229821194Y-113463411D01*
X228535480Y-114963411D02*
X228535480Y-113463411D01*
X228178337Y-113463411D01*
X227964051Y-113534840D01*
X227821194Y-113677697D01*
X227749765Y-113820554D01*
X227678337Y-114106268D01*
X227678337Y-114320554D01*
X227749765Y-114606268D01*
X227821194Y-114749125D01*
X227964051Y-114891982D01*
X228178337Y-114963411D01*
X228535480Y-114963411D01*
X235535480Y-118563411D02*
X234678337Y-118563411D01*
X235106908Y-120063411D02*
X235106908Y-118563411D01*
X234178337Y-119920554D02*
X234106908Y-119991982D01*
X234178337Y-120063411D01*
X234249765Y-119991982D01*
X234178337Y-119920554D01*
X234178337Y-120063411D01*
X233464051Y-120063411D02*
X233464051Y-118563411D01*
X233464051Y-119277697D02*
X232606908Y-119277697D01*
X232606908Y-120063411D02*
X232606908Y-118563411D01*
X230821194Y-118706268D02*
X230749765Y-118634840D01*
X230606908Y-118563411D01*
X230249765Y-118563411D01*
X230106908Y-118634840D01*
X230035480Y-118706268D01*
X229964051Y-118849125D01*
X229964051Y-118991982D01*
X230035480Y-119206268D01*
X230892622Y-120063411D01*
X229964051Y-120063411D01*
X229035480Y-118563411D02*
X228892622Y-118563411D01*
X228749765Y-118634840D01*
X228678337Y-118706268D01*
X228606908Y-118849125D01*
X228535480Y-119134840D01*
X228535480Y-119491982D01*
X228606908Y-119777697D01*
X228678337Y-119920554D01*
X228749765Y-119991982D01*
X228892622Y-120063411D01*
X229035480Y-120063411D01*
X229178337Y-119991982D01*
X229249765Y-119920554D01*
X229321194Y-119777697D01*
X229392622Y-119491982D01*
X229392622Y-119134840D01*
X229321194Y-118849125D01*
X229249765Y-118706268D01*
X229178337Y-118634840D01*
X229035480Y-118563411D01*
X227964051Y-118706268D02*
X227892622Y-118634840D01*
X227749765Y-118563411D01*
X227392622Y-118563411D01*
X227249765Y-118634840D01*
X227178337Y-118706268D01*
X227106908Y-118849125D01*
X227106908Y-118991982D01*
X227178337Y-119206268D01*
X228035480Y-120063411D01*
X227106908Y-120063411D01*
X226178337Y-118563411D02*
X226035480Y-118563411D01*
X225892622Y-118634840D01*
X225821194Y-118706268D01*
X225749765Y-118849125D01*
X225678337Y-119134840D01*
X225678337Y-119491982D01*
X225749765Y-119777697D01*
X225821194Y-119920554D01*
X225892622Y-119991982D01*
X226035480Y-120063411D01*
X226178337Y-120063411D01*
X226321194Y-119991982D01*
X226392622Y-119920554D01*
X226464051Y-119777697D01*
X226535480Y-119491982D01*
X226535480Y-119134840D01*
X226464051Y-118849125D01*
X226392622Y-118706268D01*
X226321194Y-118634840D01*
X226178337Y-118563411D01*
D10*
X244571190Y-124476190D02*
X244571190Y-124952380D01*
X244904523Y-123952380D02*
X244571190Y-124476190D01*
X244237857Y-123952380D01*
X243952142Y-124047619D02*
X243904523Y-124000000D01*
X243809285Y-123952380D01*
X243571190Y-123952380D01*
X243475952Y-124000000D01*
X243428333Y-124047619D01*
X243380714Y-124142857D01*
X243380714Y-124238095D01*
X243428333Y-124380952D01*
X243999761Y-124952380D01*
X243380714Y-124952380D01*
X244904523Y-121452380D02*
X244237857Y-121452380D01*
X244904523Y-122452380D01*
X244237857Y-122452380D01*
X243904523Y-121547619D02*
X243856904Y-121500000D01*
X243761666Y-121452380D01*
X243523571Y-121452380D01*
X243428333Y-121500000D01*
X243380714Y-121547619D01*
X243333095Y-121642857D01*
X243333095Y-121738095D01*
X243380714Y-121880952D01*
X243952142Y-122452380D01*
X243333095Y-122452380D01*
X244499761Y-119428571D02*
X244356904Y-119476190D01*
X244309285Y-119523809D01*
X244261666Y-119619047D01*
X244261666Y-119761904D01*
X244309285Y-119857142D01*
X244356904Y-119904761D01*
X244452142Y-119952380D01*
X244833095Y-119952380D01*
X244833095Y-118952380D01*
X244499761Y-118952380D01*
X244404523Y-119000000D01*
X244356904Y-119047619D01*
X244309285Y-119142857D01*
X244309285Y-119238095D01*
X244356904Y-119333333D01*
X244404523Y-119380952D01*
X244499761Y-119428571D01*
X244833095Y-119428571D01*
X243880714Y-119047619D02*
X243833095Y-119000000D01*
X243737857Y-118952380D01*
X243499761Y-118952380D01*
X243404523Y-119000000D01*
X243356904Y-119047619D01*
X243309285Y-119142857D01*
X243309285Y-119238095D01*
X243356904Y-119380952D01*
X243928333Y-119952380D01*
X243309285Y-119952380D01*
X244809285Y-117116666D02*
X244333095Y-117116666D01*
X244904523Y-117402380D02*
X244571190Y-116402380D01*
X244237857Y-117402380D01*
X243952142Y-116497619D02*
X243904523Y-116450000D01*
X243809285Y-116402380D01*
X243571190Y-116402380D01*
X243475952Y-116450000D01*
X243428333Y-116497619D01*
X243380714Y-116592857D01*
X243380714Y-116688095D01*
X243428333Y-116830952D01*
X243999761Y-117402380D01*
X243380714Y-117402380D01*
X244621190Y-114376190D02*
X244621190Y-114852380D01*
X244954523Y-113852380D02*
X244621190Y-114376190D01*
X244287857Y-113852380D01*
X243430714Y-114852380D02*
X244002142Y-114852380D01*
X243716428Y-114852380D02*
X243716428Y-113852380D01*
X243811666Y-113995238D01*
X243906904Y-114090476D01*
X244002142Y-114138095D01*
X244954523Y-111252380D02*
X244287857Y-111252380D01*
X244954523Y-112252380D01*
X244287857Y-112252380D01*
X243383095Y-112252380D02*
X243954523Y-112252380D01*
X243668809Y-112252380D02*
X243668809Y-111252380D01*
X243764047Y-111395238D01*
X243859285Y-111490476D01*
X243954523Y-111538095D01*
X244549761Y-109328571D02*
X244406904Y-109376190D01*
X244359285Y-109423809D01*
X244311666Y-109519047D01*
X244311666Y-109661904D01*
X244359285Y-109757142D01*
X244406904Y-109804761D01*
X244502142Y-109852380D01*
X244883095Y-109852380D01*
X244883095Y-108852380D01*
X244549761Y-108852380D01*
X244454523Y-108900000D01*
X244406904Y-108947619D01*
X244359285Y-109042857D01*
X244359285Y-109138095D01*
X244406904Y-109233333D01*
X244454523Y-109280952D01*
X244549761Y-109328571D01*
X244883095Y-109328571D01*
X243359285Y-109852380D02*
X243930714Y-109852380D01*
X243645000Y-109852380D02*
X243645000Y-108852380D01*
X243740238Y-108995238D01*
X243835476Y-109090476D01*
X243930714Y-109138095D01*
X244859285Y-106866666D02*
X244383095Y-106866666D01*
X244954523Y-107152380D02*
X244621190Y-106152380D01*
X244287857Y-107152380D01*
X243430714Y-107152380D02*
X244002142Y-107152380D01*
X243716428Y-107152380D02*
X243716428Y-106152380D01*
X243811666Y-106295238D01*
X243906904Y-106390476D01*
X244002142Y-106438095D01*
M02*
