M48
; DRILL file {KiCad (5.1.5)-3} date 12/02/2020 22:52:46
; FORMAT={-:-/ absolute / inch / decimal}
; #@! TF.CreationDate,2020-02-12T22:52:46+00:00
; #@! TF.GenerationSoftware,Kicad,Pcbnew,(5.1.5)-3
; #@! TF.FileFunction,Plated,1,2,PTH
FMAT,2
INCH
T1C0.0157
T2C0.0394
%
G90
G05
T1
X8.9152Y-4.8819
X9.0569Y-4.4567
X9.175Y-4.2205
X9.175Y-4.6378
T2
X8.6002Y-4.2992
X8.6002Y-4.3992
X8.6002Y-4.4992
X8.6002Y-4.5992
X8.6002Y-4.6992
X8.6002Y-4.7992
X8.7002Y-4.2992
X8.7002Y-4.3992
X8.7002Y-4.4992
X8.7002Y-4.5992
X8.7002Y-4.6992
X8.7002Y-4.7992
X9.5012Y-4.0996
X9.5012Y-4.1996
X9.5012Y-4.2996
X9.5012Y-4.3996
X9.5012Y-4.4996
X9.5012Y-4.5996
X9.5012Y-4.6996
X9.5012Y-4.7996
X9.5012Y-4.8996
X9.5012Y-4.9996
T0
M30
